<svg xmlns="http://www.w3.org/2000/svg" xmlns:xlink="http://www.w3.org/1999/xlink" width="162" height="162" viewBox="0 0 162 162" fill="none"><g filter="url(#filter_1_367)"><path d="M36.8745 78L19.9995 111.75L19.9995 133.047C19.9995 140.76 26.2521 147.013 33.965 147.013L80.7495 147.013L127.534 147.013C135.247 147.013 141.5 140.76 141.5 133.047L141.5 111.75L124.625 78L80.7495 78L36.8745 78Z"   fill="url(#linear_fill_1_368)" ></path></g><path d="M37.125 111.375L37.125 77.625L20.25 111.375L37.125 111.375Z"   fill="url(#linear_fill_1_369)" ></path><path d="M125 111.75L125 78L141.875 111.75L125 111.75Z"   fill="url(#linear_fill_1_370)" ></path><path d="M77.9864 108.627L66.274 93.7436C65.4029 92.6365 66.1915 91.0125 67.6002 91.0125L72.635 91.0125C73.567 91.0125 74.3292 90.2625 74.2011 89.3394C72.6754 78.3503 56.8805 59.4355 33.1007 50.8549C32.1729 50.5201 32.4067 48.9375 33.393 48.9375L125.232 48.9375C126.218 48.9375 126.452 50.5201 125.524 50.8549C101.744 59.4355 85.9496 78.3503 84.4239 89.3394C84.2957 90.2625 85.058 91.0125 85.99 91.0125L91.0248 91.0125C92.4335 91.0125 93.2221 92.6365 92.351 93.7436L80.6386 108.627C79.963 109.486 78.662 109.486 77.9864 108.627Z"   fill="url(#linear_fill_1_371)" ></path><path d="M67.604 111.375L20.25 111.375L20.25 133.138C20.25 140.594 26.2942 146.638 33.75 146.638L128.25 146.638C135.706 146.638 141.75 140.594 141.75 133.138L141.75 111.375L94.3951 111.375C93.5647 118.034 87.8839 123.188 80.9995 123.188C74.1152 123.188 68.4344 118.034 67.604 111.375Z" fill-rule="evenodd"  fill="url(#linear_fill_1_372)" ></path><path d="M46.9366 18.5436C46.7408 18.1411 46.7129 17.6774 46.8591 17.2544L49.1102 10.7375C49.871 8.53523 52.2729 7.36664 54.4752 8.12737L68.8304 13.0861C71.0326 13.8468 72.2012 16.2488 71.4405 18.4511L67.5837 29.6162C66.8229 31.8185 64.421 32.9871 62.2187 32.2263L52.5117 28.8732C52.0887 28.7271 51.7411 28.4189 51.5453 28.0165L46.9366 18.5436Z"   fill="url(#linear_fill_1_373)" ></path><g mask="url(#mask-1_375)"><path d="M43.8755 25.8901L46.6303 17.915L51.4154 19.568C53.1772 20.1765 54.1121 22.0981 53.5035 23.8599L51.8506 28.645L43.8755 25.8901Z"   fill="#007FCC" ></path></g><path d="M89.5571 16.4384C89.6664 16.118 89.8986 15.8542 90.2024 15.705L94.8831 13.4065C96.4648 12.6298 98.3767 13.2824 99.1534 14.8641L104.217 25.1745C104.993 26.7562 104.341 28.6681 102.759 29.4449L94.7397 33.3828C93.158 34.1595 91.2461 33.507 90.4694 31.9252L87.0457 24.9534C86.8965 24.6495 86.8741 24.2989 86.9835 23.9785L89.5571 16.4384Z"   fill="url(#linear_fill_1_378)" ></path><g mask="url(#mask-1_380)"><path d="M83.9995 18.751L89.7275 15.9382L91.4152 19.375C92.0366 20.6403 91.5145 22.1699 90.2491 22.7913L86.8123 24.479L83.9995 18.751Z"   fill="#E7E7E7" ></path></g><path d="M46.3733 57.229C46.2501 57.6126 45.9795 57.9316 45.6212 58.1158L40.1 60.9533C38.2342 61.9122 35.9443 61.177 34.9855 59.3112L28.7352 47.1495C27.7764 45.2837 28.5116 42.9939 30.3773 42.035L39.8365 37.1737C41.7023 36.2149 43.9921 36.9501 44.951 38.8158L49.1774 47.0396C49.3615 47.398 49.3958 47.8148 49.2727 48.1985L46.3733 57.229Z"   fill="url(#linear_fill_1_383)" ></path><g mask="url(#mask-1_385)"><path d="M52.9368 54.3556L46.1803 57.828L44.0969 53.7741C43.3298 52.2815 43.9179 50.4496 45.4105 49.6825L49.4644 47.5991L52.9368 54.3556Z"   fill="#E7E7E7" ></path></g><path d="M120.88 37.3892C121.203 37.4758 121.479 37.6872 121.646 37.977L124.223 42.4399C125.093 43.9482 124.577 45.8766 123.069 46.7475L113.238 52.4233C111.729 53.2941 109.801 52.7774 108.93 51.2691L104.515 43.6228C103.645 42.1147 104.161 40.1861 105.67 39.3153L112.317 35.4773C112.607 35.3101 112.951 35.2648 113.274 35.3513L120.88 37.3892Z"   fill="url(#linear_fill_1_388)" ></path><g mask="url(#mask-1_390)"><path d="M118.231 32.0627L121.385 37.5244L118.108 39.4164C116.901 40.113 115.358 39.6996 114.662 38.493L112.77 35.216L118.231 32.0627Z"   fill="#007FCC" ></path></g><path d="M73.3481 45.0984C73.3476 44.8468 73.4472 44.6053 73.6246 44.427L76.3601 41.6805C77.2845 40.7524 78.7862 40.7494 79.7143 41.6738L85.7641 47.6993C86.6922 48.6237 86.6953 50.1255 85.7709 51.0535L81.0844 55.7589C80.16 56.687 78.6582 56.69 77.7301 55.7656L73.6392 51.6911C73.4609 51.5136 73.3605 51.2725 73.36 51.0209L73.3481 45.0984Z"   fill="url(#linear_fill_1_393)" ></path><g mask="url(#mask-1_395)"><path d="M69.9995 48.0663L73.347 44.7053L75.3636 46.7138C76.1061 47.4533 76.1085 48.6547 75.369 49.3972L73.3605 51.4138L69.9995 48.0663Z"   fill="#007FCC" ></path></g><path d="M106.138 120.103C106.138 118.946 107.076 118.009 108.233 118.009L113.819 118.009C114.976 118.009 115.914 118.946 115.914 120.103C115.914 121.26 114.976 122.198 113.819 122.198L108.233 122.198C107.076 122.198 106.138 121.26 106.138 120.103Z"   fill="#1485EE" ></path><path d="M122.896 120.103C122.896 118.946 123.834 118.009 124.991 118.009L130.578 118.009C131.734 118.009 132.672 118.946 132.672 120.103C132.672 121.26 131.734 122.198 130.578 122.198L124.991 122.198C123.834 122.198 122.896 121.26 122.896 120.103Z"   fill="#1485EE" ></path><rect  x="106.13818359375" y="117.31005859375" width="9.77586" height="4.18966" rx="2.09483"    fill="#439DF1" ></rect><rect  x="122.89599609375" y="117.31005859375" width="9.77586" height="4.18966" rx="2.09483"    fill="#439DF1" ></rect><defs><linearGradient id="linear_fill_1_368" x1="80.74951171875" y1="78" x2="80.74951171875" y2="132" gradientUnits="userSpaceOnUse"><stop offset="0" stop-color="#E4F9EE"  /><stop offset="1" stop-color="#007FCC"  /></linearGradient><filter id="filter_1_367" x="14.413800000000265" y="75.20689999999968" width="132.67239999999947" height="80.18533945312538" filterUnits="userSpaceOnUse" color-interpolation-filters="sRGB"><feFlood flood-opacity="0" result="feFloodId_1_367"/><feColorMatrix in="SourceAlpha" type="matrix" values="0 0 0 0 0 0 0 0 0 0 0 0 0 0 0 0 0 0 127 0" result="hardAlpha_1_367"/><feOffset dx="0" dy="2.7931"/><feGaussianBlur stdDeviation="2.7931"/><feComposite in2="hardAlpha_1_367" operator="out"/><feColorMatrix type="matrix" values="0 0 0 0 0.19215686274509805 0 0 0 0 0.19215686274509805 0 0 0 0 0.19215686274509805 0 0 0 0.1 0"/><feBlend mode="normal" in2="feFloodId_1_367" result="dropShadow_1_1_367"/><feBlend mode="normal" in="SourceGraphic" in2="dropShadow_1_1_367" result="shape_1_367"/></filter><linearGradient id="linear_fill_1_369" x1="28.6875" y1="77.625" x2="28.6875" y2="111.375" gradientUnits="userSpaceOnUse"><stop offset="0" stop-color="#DBFAE9"  /><stop offset="1" stop-color="#007FCC"  /></linearGradient><linearGradient id="linear_fill_1_370" x1="133.43798828125" y1="78" x2="133.43798828125" y2="111.75" gradientUnits="userSpaceOnUse"><stop offset="0" stop-color="#DBFAE9"  /><stop offset="1" stop-color="#007FCC"  /></linearGradient><linearGradient id="linear_fill_1_371" x1="79.3125" y1="106.31201171875" x2="79.3125" y2="48.9375" gradientUnits="userSpaceOnUse"><stop offset="0" stop-color="#83C1FA"  /><stop offset="1" stop-color="#83C1FA" stop-opacity="0" /></linearGradient><linearGradient id="linear_fill_1_372" x1="81" y1="111.375" x2="81" y2="146.637939453125" gradientUnits="userSpaceOnUse"><stop offset="0" stop-color="#F3FFF7"  /><stop offset="1" stop-color="#FFFFFF"  /></linearGradient><linearGradient id="linear_fill_1_373" x1="47.181640625" y1="16.320068359375" x2="69.51220703125" y2="24.03369140625" gradientUnits="userSpaceOnUse"><stop offset="0" stop-color="#1485EE"  /><stop offset="1" stop-color="#00E6E6"  /></linearGradient><mask id="mask-1_375" style="mask-type:alpha" maskUnits="userSpaceOnUse"><path d="M46.9362 18.5436C46.7404 18.1411 46.7125 17.6774 46.8587 17.2544L49.1098 10.7375C49.8706 8.53523 52.2725 7.36664 54.4748 8.12737L68.8299 13.0861C71.0321 13.8468 72.2007 16.2488 71.44 18.4511L67.5832 29.6162C66.8224 31.8185 64.4205 32.9871 62.2182 32.2263L52.5113 28.8732C52.0883 28.7271 51.7407 28.4189 51.5449 28.0165L46.9362 18.5436Z"   fill="#D9D9D9" ></path></mask><linearGradient id="linear_fill_1_378" x1="90.87353515625" y1="15.37548828125" x2="98.74951171875" y2="31.413818359375" gradientUnits="userSpaceOnUse"><stop offset="0" stop-color="#C5C5C5"  /><stop offset="1" stop-color="#C5C5C5" stop-opacity="0" /></linearGradient><mask id="mask-1_380" style="mask-type:alpha" maskUnits="userSpaceOnUse"><path d="M89.5566 16.4384C89.6659 16.118 89.8981 15.8542 90.2019 15.705L94.8826 13.4065C96.4643 12.6298 98.3763 13.2824 99.153 14.8641L104.216 25.1745C104.992 26.7562 104.34 28.6681 102.758 29.4449L94.7392 33.3828C93.1575 34.1595 91.2456 33.507 90.4689 31.9252L87.0452 24.9534C86.896 24.6495 86.8736 24.2989 86.983 23.9785L89.5566 16.4384Z"   fill="#D9D9D9" ></path></mask><linearGradient id="linear_fill_1_383" x1="44.82958984375" y1="58.522705078125" x2="35.10693359375" y2="39.6044921875" gradientUnits="userSpaceOnUse"><stop offset="0" stop-color="#C5C5C5"  /><stop offset="1" stop-color="#C5C5C5" stop-opacity="0" /></linearGradient><mask id="mask-1_385" style="mask-type:alpha" maskUnits="userSpaceOnUse"><path d="M46.3728 57.229C46.2496 57.6126 45.979 57.9316 45.6207 58.1158L40.0995 60.9533C38.2337 61.9122 35.9438 61.177 34.985 59.3112L28.7347 47.1495C27.7759 45.2837 28.5111 42.9939 30.3768 42.035L39.836 37.1737C41.7018 36.2149 43.9916 36.9501 44.9505 38.8158L49.1769 47.0396C49.3611 47.398 49.3953 47.8148 49.2722 48.1985L46.3728 57.229Z"   fill="#D9D9D9" ></path></mask><linearGradient id="linear_fill_1_388" x1="121.73193359375" y1="38.126220703125" x2="105.97412109375" y2="45.824462890625" gradientUnits="userSpaceOnUse"><stop offset="0" stop-color="#439DF1"  /><stop offset="1" stop-color="#00E6E6"  /></linearGradient><mask id="mask-1_390" style="mask-type:alpha" maskUnits="userSpaceOnUse"><path d="M120.879 37.3892C121.202 37.4758 121.478 37.6872 121.645 37.977L124.222 42.4399C125.092 43.9482 124.576 45.8766 123.068 46.7475L113.237 52.4233C111.728 53.2941 109.8 52.7774 108.929 51.2691L104.514 43.6228C103.644 42.1147 104.16 40.1861 105.669 39.3153L112.316 35.4773C112.606 35.3101 112.95 35.2648 113.273 35.3513L120.879 37.3892Z"   fill="#D9D9D9" ></path></mask><linearGradient id="linear_fill_1_393" x1="73.65625" y1="44.3955078125" x2="82.24462890625" y2="54.373046875" gradientUnits="userSpaceOnUse"><stop offset="0" stop-color="#439DF1"  /><stop offset="1" stop-color="#6EE1A5" stop-opacity="0" /></linearGradient><mask id="mask-1_395" style="mask-type:alpha" maskUnits="userSpaceOnUse"><path d="M73.3477 45.0984C73.3472 44.8468 73.4467 44.6053 73.6242 44.427L76.3597 41.6805C77.2841 40.7524 78.7858 40.7494 79.7139 41.6738L85.7637 47.6993C86.6918 48.6237 86.6949 50.1255 85.7705 51.0535L81.0839 55.7589C80.1595 56.687 78.6578 56.69 77.7297 55.7656L73.6388 51.6911C73.4605 51.5136 73.3601 51.2725 73.3596 51.0209L73.3477 45.0984Z"   fill="#D9D9D9" ></path></mask></defs></svg>