<svg xmlns="http://www.w3.org/2000/svg" xmlns:xlink="http://www.w3.org/1999/xlink" width="36" height="36" viewBox="0 0 36 36" fill="none"><path     fill="#007FCC"  d="M0 30L0 6C0 2.68629 2.68629 0 6 0L30 0C33.3137 0 36 2.68629 36 6L36 30C36 33.3137 33.3137 36 30 36L6 36C2.68629 36 0 33.3137 0 30Z"></path><path d="M26.029 25.1625L10.104 25.1625C10.0728 25.1625 10.0417 25.1617 10.0106 25.1601C9.97946 25.1586 9.9484 25.1563 9.9174 25.1532C9.8864 25.1501 9.8555 25.1463 9.82469 25.1417C9.79387 25.1371 9.7632 25.1317 9.73265 25.1256C9.70211 25.1195 9.67173 25.1126 9.64153 25.105C9.61133 25.0973 9.58133 25.089 9.55154 25.0799C9.52175 25.0707 9.49221 25.0609 9.4629 25.0503C9.4336 25.0397 9.40458 25.0284 9.37584 25.0164C9.34709 25.0044 9.31867 24.9917 9.29055 24.9783C9.26244 24.9649 9.23468 24.9507 9.20726 24.9359C9.17985 24.9211 9.15282 24.9057 9.12617 24.8895C9.09952 24.8734 9.07329 24.8566 9.04747 24.8392C9.02165 24.8217 8.99629 24.8037 8.97136 24.785C8.94644 24.7663 8.92199 24.747 8.89803 24.7271C8.87406 24.7072 8.8506 24.6867 8.82765 24.6657C8.80469 24.6446 8.78228 24.623 8.76039 24.6008C8.73851 24.5786 8.71719 24.5559 8.69643 24.5327C8.67567 24.5095 8.6555 24.4858 8.63592 24.4615C8.61633 24.4373 8.59736 24.4126 8.579 24.3874C8.56063 24.3623 8.54291 24.3367 8.52582 24.3106C8.50872 24.2846 8.49228 24.2581 8.4765 24.2313C8.46071 24.2044 8.44561 24.1772 8.43117 24.1496C8.41674 24.122 8.40299 24.094 8.38994 24.0657C8.37689 24.0374 8.36455 24.0088 8.35291 23.9799C8.34128 23.951 8.33036 23.9219 8.32017 23.8925C8.30998 23.863 8.30052 23.8333 8.2918 23.8034C8.28308 23.7735 8.2751 23.7434 8.26787 23.7131C8.26064 23.6828 8.25416 23.6524 8.24844 23.6217C8.24271 23.5911 8.23775 23.5604 8.23355 23.5295C8.22935 23.4986 8.22591 23.4677 8.22325 23.4366C8.22058 23.4056 8.21868 23.3745 8.21755 23.3434C8.21642 23.3122 8.21606 23.2811 8.21647 23.25L8.21647 9.89995C8.21668 9.86912 8.21763 9.8383 8.21933 9.80751C8.22103 9.77673 8.22348 9.746 8.22668 9.71532C8.22988 9.68466 8.23382 9.65409 8.23851 9.6236C8.2432 9.59313 8.24862 9.5628 8.25479 9.53259C8.26095 9.50237 8.26785 9.47232 8.27547 9.44245C8.2831 9.41257 8.29145 9.38289 8.30052 9.35343C8.3096 9.32395 8.31938 9.29472 8.32987 9.26573C8.34037 9.23673 8.35156 9.20801 8.36346 9.17956C8.37535 9.15111 8.38793 9.12296 8.40119 9.09513C8.41446 9.06729 8.42839 9.03979 8.44299 9.01265C8.45759 8.98548 8.47285 8.9587 8.48875 8.93228C8.50466 8.90586 8.5212 8.87985 8.53837 8.85424C8.55555 8.82863 8.57333 8.80345 8.59173 8.7787C8.61013 8.75396 8.62912 8.72968 8.6487 8.70586C8.66828 8.68204 8.68843 8.65871 8.70915 8.63587C8.72987 8.61303 8.75113 8.59071 8.77293 8.56891C8.79473 8.5471 8.81705 8.52584 8.83989 8.50513C8.86273 8.48441 8.88606 8.46426 8.90988 8.44468C8.9337 8.4251 8.95798 8.40611 8.98273 8.38771C9.00747 8.36931 9.03265 8.35153 9.05826 8.33435C9.08387 8.31718 9.10988 8.30064 9.1363 8.28473C9.16271 8.26882 9.1895 8.25357 9.21666 8.23897C9.24382 8.22437 9.27132 8.21043 9.29915 8.19717C9.32699 8.1839 9.35513 8.17133 9.38358 8.15943C9.41203 8.14754 9.44075 8.13634 9.46975 8.12585C9.49874 8.11535 9.52797 8.10557 9.55745 8.0965C9.58692 8.08743 9.61659 8.07908 9.64647 8.07145C9.67634 8.06382 9.70639 8.05693 9.7366 8.05076C9.76681 8.0446 9.79716 8.03917 9.82764 8.03449C9.85811 8.0298 9.88869 8.02586 9.91936 8.02266C9.95002 8.01946 9.98075 8.01701 10.0115 8.01531C10.0423 8.01361 10.0731 8.01265 10.104 8.01245L15.5665 8.01245C15.5834 8.01255 15.6002 8.01287 15.6171 8.01343C15.634 8.01398 15.6509 8.01476 15.6677 8.01576C15.6846 8.01676 15.7014 8.01799 15.7182 8.01945C15.735 8.0209 15.7518 8.02259 15.7686 8.02449C15.7854 8.0264 15.8021 8.02853 15.8188 8.03089C15.8356 8.03324 15.8523 8.03582 15.8689 8.03863C15.8856 8.04143 15.9022 8.04446 15.9187 8.04771C15.9353 8.05096 15.9518 8.05443 15.9683 8.05812C15.9848 8.06182 16.0012 8.06573 16.0176 8.06986C16.0339 8.074 16.0503 8.07835 16.0665 8.08292C16.0828 8.08749 16.099 8.09228 16.1151 8.09729C16.1312 8.10229 16.1473 8.10751 16.1632 8.11295C16.1792 8.11839 16.1952 8.12404 16.211 8.1299C16.2268 8.13577 16.2426 8.14184 16.2582 8.14813C16.2739 8.15442 16.2895 8.16091 16.305 8.16761C16.3205 8.17432 16.3359 8.18123 16.3512 8.18835C16.3665 8.19547 16.3817 8.20279 16.3968 8.21032C16.4119 8.21784 16.427 8.22557 16.4419 8.2335C16.4568 8.24143 16.4716 8.24956 16.4862 8.25788C16.5009 8.26621 16.5155 8.27473 16.53 8.28345C16.5444 8.29217 16.5588 8.30108 16.573 8.31018C16.5872 8.31928 16.6013 8.32857 16.6153 8.33805C16.6293 8.34753 16.6431 8.3572 16.6568 8.36705C16.6705 8.3769 16.6841 8.38694 16.6976 8.39715C16.711 8.40737 16.7243 8.41777 16.7375 8.42834C16.7506 8.43891 16.7637 8.44966 16.7765 8.46058C16.7894 8.47151 16.8021 8.4826 16.8147 8.49387C16.8273 8.50513 16.8397 8.51656 16.852 8.52816C16.8643 8.53976 16.8764 8.55152 16.8883 8.56344C16.9003 8.57536 16.9121 8.58744 16.9237 8.59968C16.9353 8.61192 16.9468 8.62431 16.9581 8.63686C16.9694 8.64941 16.9805 8.66211 16.9915 8.67495L18.104 9.92495C18.1119 9.93278 18.12 9.94043 18.1283 9.94792C18.1366 9.95541 18.145 9.96271 18.1536 9.96983C18.1622 9.97696 18.1709 9.98392 18.1798 9.99069C18.1887 9.99747 18.1977 10.004 18.2068 10.0104C18.216 10.0168 18.2253 10.023 18.2347 10.029C18.2441 10.035 18.2536 10.0408 18.2632 10.0464C18.2729 10.052 18.2826 10.0574 18.2925 10.0626C18.3024 10.0678 18.3124 10.0728 18.3225 10.0776C18.3325 10.0824 18.3427 10.0869 18.353 10.0913C18.3633 10.0956 18.3737 10.0997 18.3841 10.1037C18.3946 10.1076 18.4051 10.1113 18.4157 10.1148C18.4263 10.1182 18.437 10.1215 18.4477 10.1245C18.4584 10.1275 18.4692 10.1304 18.4801 10.1329C18.4909 10.1355 18.5018 10.1379 18.5128 10.14C18.5238 10.1421 18.5347 10.144 18.5458 10.1457C18.5568 10.1473 18.5679 10.1488 18.579 10.15L25.9915 10.075C26.0232 10.0743 26.0548 10.0745 26.0865 10.0754C26.1181 10.0764 26.1498 10.0781 26.1813 10.0807C26.2129 10.0833 26.2444 10.0866 26.2758 10.0907C26.3072 10.0949 26.3385 10.0998 26.3697 10.1055C26.4008 10.1112 26.4318 10.1177 26.4627 10.125C26.4935 10.1323 26.5241 10.1403 26.5546 10.1491C26.585 10.1579 26.6152 10.1675 26.6451 10.1778C26.6751 10.1882 26.7047 10.1993 26.7341 10.2111C26.7635 10.2229 26.7926 10.2355 26.8213 10.2488C26.8501 10.2621 26.8785 10.2761 26.9066 10.2908C26.9346 10.3055 26.9623 10.3209 26.9895 10.3371C27.0168 10.3532 27.0437 10.37 27.0701 10.3874C27.0965 10.4049 27.1225 10.423 27.148 10.4418C27.1735 10.4606 27.1986 10.48 27.2231 10.5C27.2476 10.52 27.2717 10.5407 27.2952 10.5619C27.3187 10.5832 27.3416 10.605 27.364 10.6274C27.3864 10.6498 27.4082 10.6728 27.4295 10.6963C27.4507 10.7198 27.4714 10.7438 27.4914 10.7683C27.5114 10.7929 27.5309 10.8179 27.5496 10.8434C27.5684 10.8689 27.5865 10.8949 27.604 10.9213C27.6214 10.9477 27.6382 10.9746 27.6544 11.0019C27.6705 11.0292 27.6859 11.0568 27.7007 11.0849C27.7154 11.1129 27.7294 11.1413 27.7426 11.1701C27.756 11.1988 27.7685 11.2279 27.7804 11.2573C27.7923 11.2867 27.8032 11.3164 27.8136 11.3463C27.8239 11.3762 27.8335 11.4064 27.8423 11.4369C27.8511 11.4673 27.8593 11.4979 27.8665 11.5288C27.8737 11.5596 27.8804 11.5906 27.886 11.6217C27.8917 11.6529 27.8966 11.6842 27.9007 11.7156C27.9048 11.747 27.9083 11.7785 27.9108 11.8101C27.9134 11.8417 27.9151 11.8733 27.9161 11.905C27.9171 11.9366 27.9171 11.9683 27.9165 12L27.9165 23.25C27.9169 23.2811 27.9165 23.3122 27.9155 23.3434C27.9144 23.3745 27.9124 23.4056 27.9097 23.4366C27.9071 23.4677 27.9036 23.4986 27.8995 23.5295C27.8952 23.5604 27.8901 23.5911 27.8845 23.6217C27.8788 23.6524 27.8724 23.6828 27.8651 23.7131C27.8579 23.7434 27.8499 23.7735 27.8411 23.8034C27.8323 23.8333 27.8229 23.863 27.8128 23.8925C27.8026 23.9219 27.7917 23.951 27.78 23.9799C27.7685 24.0088 27.7562 24.0374 27.743 24.0657C27.73 24.094 27.7163 24.122 27.7018 24.1496C27.6874 24.1772 27.6723 24.2044 27.6565 24.2313C27.6406 24.2581 27.6242 24.2846 27.6071 24.3106C27.59 24.3367 27.5723 24.3623 27.5539 24.3874C27.5356 24.4126 27.5166 24.4373 27.497 24.4615C27.4775 24.4858 27.4573 24.5095 27.4365 24.5327C27.4158 24.5559 27.3944 24.5786 27.3725 24.6008C27.3507 24.623 27.3283 24.6446 27.3053 24.6657C27.2823 24.6867 27.2589 24.7072 27.2349 24.7271C27.211 24.747 27.1865 24.7663 27.1616 24.785C27.1367 24.8037 27.1113 24.8217 27.0855 24.8392C27.0596 24.8566 27.0334 24.8734 27.0068 24.8895C26.9801 24.9057 26.9531 24.9211 26.9257 24.9359C26.8983 24.9507 26.8705 24.9649 26.8424 24.9783C26.8143 24.9917 26.7859 25.0044 26.7571 25.0164C26.7284 25.0284 26.6993 25.0397 26.67 25.0503C26.6407 25.0609 26.6112 25.0707 26.5814 25.0799C26.5516 25.089 26.5216 25.0973 26.4914 25.105C26.4612 25.1126 26.4308 25.1195 26.4003 25.1256C26.3697 25.1317 26.3391 25.1371 26.3083 25.1417C26.2774 25.1463 26.2465 25.1501 26.2155 25.1532C26.1845 25.1563 26.1535 25.1586 26.1224 25.1601C26.0913 25.1617 26.0601 25.1625 26.029 25.1625ZM10.104 9.26245C10.0935 9.26245 10.0831 9.2627 10.0727 9.26321C10.0623 9.26373 10.0519 9.2645 10.0415 9.26552C10.0311 9.26655 10.0208 9.26782 10.0104 9.26935C10.0001 9.27088 9.98984 9.27267 9.9796 9.2747C9.96937 9.27673 9.9592 9.27901 9.94907 9.28155C9.93895 9.28409 9.9289 9.28687 9.91892 9.28989C9.90893 9.29293 9.89903 9.2962 9.88921 9.29972C9.87938 9.30323 9.86965 9.30699 9.86001 9.31099C9.85038 9.31497 9.84084 9.31919 9.83141 9.32366C9.82198 9.32812 9.81266 9.3328 9.80346 9.33772C9.79426 9.34265 9.78518 9.34779 9.77623 9.35315C9.76728 9.35852 9.75847 9.3641 9.7498 9.36989C9.74112 9.37569 9.7326 9.38169 9.72422 9.3879C9.71584 9.39412 9.70761 9.40054 9.69955 9.40716C9.69148 9.41377 9.68359 9.42058 9.67586 9.42759C9.66813 9.43459 9.66057 9.44179 9.65319 9.44917C9.64582 9.45655 9.63863 9.46411 9.63162 9.47183C9.62461 9.47956 9.6178 9.48746 9.61118 9.49552C9.60456 9.50359 9.59814 9.51181 9.59193 9.52019C9.58571 9.52857 9.57971 9.5371 9.57391 9.54577C9.56812 9.55444 9.56254 9.56326 9.55717 9.57222C9.55181 9.58116 9.54667 9.59024 9.54175 9.59944C9.53683 9.60864 9.53214 9.61795 9.52768 9.62739C9.52322 9.63682 9.51899 9.64635 9.515 9.65599C9.51101 9.66562 9.50725 9.67536 9.50374 9.68519C9.50022 9.695 9.49695 9.70491 9.49393 9.71489C9.4909 9.72488 9.48812 9.73493 9.48558 9.74505C9.48304 9.75517 9.48076 9.76534 9.47872 9.77558C9.47669 9.78581 9.4749 9.79609 9.47338 9.80642C9.47184 9.81673 9.47057 9.82708 9.46954 9.83747C9.46852 9.84785 9.46775 9.85825 9.46724 9.86866C9.46673 9.87909 9.46647 9.88952 9.46647 9.89995L9.46647 23.25C9.46647 23.2603 9.46673 23.2707 9.46724 23.281C9.46775 23.2914 9.46852 23.3017 9.46955 23.312C9.47058 23.3223 9.47186 23.3326 9.47339 23.3428C9.47493 23.3531 9.47672 23.3633 9.47877 23.3734C9.48081 23.3836 9.48311 23.3937 9.48566 23.4037C9.4882 23.4138 9.491 23.4237 9.49404 23.4336C9.49708 23.4435 9.50037 23.4534 9.5039 23.4631C9.50743 23.4729 9.5112 23.4825 9.51522 23.492C9.51923 23.5016 9.52347 23.511 9.52796 23.5204C9.53244 23.5297 9.53714 23.539 9.54208 23.5481C9.54702 23.5572 9.55219 23.5661 9.55757 23.575C9.56296 23.5838 9.56856 23.5925 9.57438 23.6011C9.5802 23.6097 9.58623 23.6181 9.59247 23.6264C9.59871 23.6347 9.60514 23.6428 9.61178 23.6507C9.61843 23.6587 9.62526 23.6665 9.63229 23.6741C9.63932 23.6817 9.64653 23.6891 9.65393 23.6964C9.66133 23.7036 9.6689 23.7107 9.67665 23.7176C9.6844 23.7244 9.69231 23.7311 9.7004 23.7376C9.70848 23.7441 9.71671 23.7504 9.72511 23.7564C9.7335 23.7625 9.74204 23.7684 9.75073 23.774C9.75941 23.7797 9.76823 23.7851 9.77719 23.7903C9.78614 23.7955 9.79522 23.8005 9.80442 23.8053C9.81363 23.81 9.82294 23.8145 9.83237 23.8188C9.8418 23.8231 9.85133 23.8272 9.86096 23.831C9.87059 23.8348 9.8803 23.8384 9.89011 23.8417C9.89992 23.8451 9.9098 23.8482 9.91977 23.851C9.92973 23.8539 9.93975 23.8565 9.94985 23.8588C9.95994 23.8612 9.97008 23.8633 9.98027 23.8651C9.99047 23.8669 10.0007 23.8685 10.011 23.8699C10.0213 23.8712 10.0316 23.8723 10.0419 23.8731C10.0522 23.8739 10.0625 23.8745 10.0729 23.8748C10.0833 23.8751 10.0936 23.8752 10.104 23.875L26.029 23.875C26.0393 23.8752 26.0497 23.8751 26.06 23.8748C26.0704 23.8745 26.0807 23.8739 26.0911 23.8731C26.1014 23.8723 26.1117 23.8712 26.122 23.8699C26.1322 23.8685 26.1425 23.8669 26.1527 23.8651C26.1628 23.8633 26.173 23.8612 26.1831 23.8588C26.1932 23.8565 26.2032 23.8539 26.2132 23.851C26.2231 23.8482 26.233 23.8451 26.2428 23.8417C26.2527 23.8384 26.2624 23.8348 26.272 23.831C26.2816 23.8272 26.2912 23.8231 26.3006 23.8188C26.31 23.8145 26.3193 23.81 26.3285 23.8053C26.3377 23.8005 26.3468 23.7955 26.3558 23.7903C26.3647 23.7851 26.3735 23.7797 26.3822 23.774C26.3909 23.7684 26.3995 23.7625 26.4078 23.7564C26.4162 23.7504 26.4245 23.7441 26.4326 23.7376C26.4406 23.7311 26.4486 23.7244 26.4563 23.7176C26.464 23.7107 26.4716 23.7036 26.479 23.6964C26.4864 23.6891 26.4936 23.6817 26.5007 23.6741C26.5077 23.6665 26.5145 23.6587 26.5212 23.6507C26.5278 23.6428 26.5342 23.6347 26.5405 23.6264C26.5467 23.6181 26.5528 23.6097 26.5586 23.6011C26.5644 23.5925 26.57 23.5838 26.5754 23.575C26.5808 23.5661 26.5859 23.5572 26.5909 23.5481C26.5958 23.539 26.6005 23.5297 26.605 23.5204C26.6095 23.511 26.6137 23.5016 26.6177 23.492C26.6217 23.4825 26.6255 23.4729 26.629 23.4631C26.6326 23.4534 26.6359 23.4435 26.6389 23.4336C26.642 23.4237 26.6447 23.4138 26.6473 23.4037C26.6498 23.3937 26.6521 23.3836 26.6542 23.3734C26.6562 23.3633 26.658 23.3531 26.6595 23.3428C26.6611 23.3326 26.6624 23.3223 26.6634 23.312C26.6644 23.3017 26.6652 23.2914 26.6657 23.281C26.6662 23.2707 26.6665 23.2603 26.6665 23.25L26.6665 12C26.6665 11.9896 26.6662 11.9792 26.6657 11.9689C26.6652 11.9585 26.6644 11.9482 26.6634 11.9379C26.6624 11.9276 26.6611 11.9173 26.6595 11.9071C26.658 11.8968 26.6562 11.8866 26.6542 11.8765C26.6521 11.8663 26.6498 11.8562 26.6473 11.8462C26.6447 11.8361 26.642 11.8262 26.6389 11.8163C26.6359 11.8064 26.6326 11.7965 26.629 11.7868C26.6255 11.777 26.6217 11.7674 26.6177 11.7578C26.6137 11.7483 26.6095 11.7389 26.605 11.7295C26.6005 11.7202 26.5958 11.7109 26.5909 11.7018C26.5859 11.6927 26.5808 11.6838 26.5754 11.6749C26.57 11.6661 26.5644 11.6574 26.5586 11.6488C26.5528 11.6402 26.5467 11.6318 26.5405 11.6235C26.5342 11.6152 26.5278 11.6071 26.5212 11.5992C26.5145 11.5912 26.5077 11.5834 26.5007 11.5758C26.4936 11.5682 26.4864 11.5608 26.479 11.5535C26.4716 11.5463 26.464 11.5392 26.4563 11.5323C26.4486 11.5255 26.4406 11.5188 26.4326 11.5123C26.4245 11.5058 26.4162 11.4995 26.4078 11.4935C26.3995 11.4874 26.3909 11.4815 26.3822 11.4759C26.3735 11.4702 26.3647 11.4648 26.3558 11.4596C26.3468 11.4544 26.3377 11.4494 26.3285 11.4446C26.3193 11.4399 26.31 11.4354 26.3006 11.4311C26.2912 11.4268 26.2816 11.4227 26.272 11.4189C26.2624 11.4151 26.2527 11.4115 26.2428 11.4082C26.233 11.4048 26.2231 11.4017 26.2132 11.3989C26.2032 11.396 26.1932 11.3934 26.1831 11.3911C26.173 11.3887 26.1628 11.3867 26.1527 11.3848C26.1425 11.383 26.1322 11.3814 26.122 11.38C26.1117 11.3787 26.1014 11.3776 26.0911 11.3768C26.0807 11.376 26.0704 11.3754 26.06 11.3751C26.0497 11.3748 26.0393 11.3747 26.029 11.375L18.629 11.45C18.6119 11.4492 18.5948 11.4481 18.5777 11.4469C18.5606 11.4456 18.5436 11.4442 18.5265 11.4425C18.5095 11.4408 18.4925 11.4389 18.4755 11.4368C18.4585 11.4347 18.4415 11.4324 18.4246 11.4299C18.4077 11.4273 18.3908 11.4246 18.3739 11.4216C18.357 11.4186 18.3402 11.4154 18.3234 11.412C18.3066 11.4087 18.2899 11.405 18.2732 11.4012C18.2565 11.3974 18.2399 11.3934 18.2233 11.3892C18.2067 11.3849 18.1902 11.3805 18.1737 11.3758C18.1572 11.3711 18.1408 11.3663 18.1245 11.3612C18.1081 11.3561 18.0918 11.3508 18.0756 11.3453C18.0594 11.3399 18.0432 11.3342 18.0272 11.3283C18.0111 11.3224 17.9951 11.3163 17.9792 11.31C17.9633 11.3036 17.9474 11.2971 17.9317 11.2904C17.9159 11.2837 17.9003 11.2768 17.8847 11.2697C17.8691 11.2626 17.8536 11.2553 17.8382 11.2478C17.8228 11.2403 17.8075 11.2326 17.7923 11.2248C17.7771 11.2169 17.762 11.2088 17.747 11.2005C17.732 11.1923 17.7171 11.1838 17.7024 11.1752C17.6876 11.1665 17.6729 11.1577 17.6584 11.1487C17.6438 11.1397 17.6294 11.1305 17.615 11.1211C17.6007 11.1117 17.5865 11.1021 17.5724 11.0924C17.5584 11.0826 17.5444 11.0727 17.5306 11.0626C17.5168 11.0525 17.5031 11.0423 17.4895 11.0318C17.4759 11.0214 17.4625 11.0108 17.4492 11C17.4359 10.9892 17.4227 10.9782 17.4097 10.9671C17.3967 10.956 17.3838 10.9447 17.3711 10.9333C17.3583 10.9218 17.3458 10.9102 17.3333 10.8984C17.3209 10.8867 17.3086 10.8748 17.2965 10.8627C17.2843 10.8506 17.2723 10.8384 17.2605 10.826C17.2487 10.8136 17.237 10.8011 17.2255 10.7884C17.214 10.7757 17.2027 10.7629 17.1915 10.75L16.0915 9.49995C16.0835 9.49042 16.0753 9.48112 16.0668 9.47204C16.0583 9.46298 16.0495 9.45416 16.0406 9.44558C16.0316 9.437 16.0224 9.42868 16.0129 9.42062C16.0035 9.41255 15.9938 9.40477 15.9839 9.39726C15.974 9.38974 15.9639 9.38251 15.9536 9.37556C15.9433 9.3686 15.9328 9.36195 15.9222 9.3556C15.9115 9.34924 15.9006 9.34319 15.8896 9.33743C15.8786 9.33169 15.8675 9.32626 15.8561 9.32114C15.8448 9.31601 15.8334 9.31121 15.8218 9.30675C15.8102 9.30227 15.7985 9.29812 15.7867 9.29431C15.7748 9.29048 15.7629 9.287 15.7509 9.28386C15.7389 9.28071 15.7268 9.2779 15.7146 9.27544C15.7024 9.27296 15.6902 9.27084 15.6779 9.26907C15.6656 9.26729 15.6533 9.26586 15.6409 9.26478C15.6285 9.2637 15.6161 9.26296 15.6037 9.26257C15.5913 9.26218 15.5789 9.26214 15.5665 9.26245L10.104 9.26245Z"   fill="#E6EAF5" ></path><path d="M22.0915 18.3374L14.0415 18.3374C14.0313 18.3374 14.021 18.3371 14.0108 18.3366C14.0006 18.3361 13.9904 18.3354 13.9802 18.3344C13.9701 18.3334 13.9599 18.3321 13.9498 18.3306C13.9397 18.3291 13.9296 18.3274 13.9196 18.3254C13.9095 18.3234 13.8996 18.3212 13.8896 18.3187C13.8797 18.3162 13.8699 18.3135 13.8601 18.3105C13.8503 18.3075 13.8406 18.3043 13.8309 18.3009C13.8213 18.2974 13.8118 18.2937 13.8023 18.2898C13.7929 18.2859 13.7835 18.2818 13.7743 18.2774C13.765 18.273 13.7559 18.2684 13.7469 18.2636C13.7379 18.2588 13.729 18.2537 13.7202 18.2485C13.7114 18.2432 13.7028 18.2377 13.6943 18.2321C13.6858 18.2264 13.6774 18.2205 13.6692 18.2144C13.661 18.2083 13.6529 18.202 13.645 18.1955C13.6371 18.189 13.6294 18.1824 13.6218 18.1755C13.6142 18.1686 13.6068 18.1616 13.5996 18.1543C13.5923 18.1471 13.5853 18.1397 13.5784 18.1321C13.5715 18.1245 13.5649 18.1168 13.5584 18.1089C13.5519 18.101 13.5456 18.0929 13.5395 18.0847C13.5334 18.0765 13.5275 18.0681 13.5218 18.0596C13.5161 18.0511 13.5107 18.0425 13.5054 18.0337C13.5002 18.0249 13.4951 18.016 13.4903 18.007C13.4855 17.998 13.4809 17.9889 13.4765 17.9796C13.4721 17.9704 13.468 17.961 13.4641 17.9516C13.4602 17.9421 13.4565 17.9326 13.453 17.9229C13.4496 17.9133 13.4464 17.9036 13.4434 17.8938C13.4404 17.884 13.4377 17.8742 13.4352 17.8643C13.4327 17.8543 13.4305 17.8444 13.4285 17.8343C13.4265 17.8243 13.4248 17.8142 13.4233 17.8041C13.4218 17.794 13.4205 17.7838 13.4195 17.7737C13.4185 17.7635 13.4178 17.7533 13.4173 17.7431C13.4168 17.7329 13.4165 17.7226 13.4165 17.7124C13.4165 17.7022 13.4168 17.6919 13.4173 17.6817C13.4178 17.6715 13.4185 17.6613 13.4195 17.6512C13.4205 17.641 13.4218 17.6308 13.4233 17.6207C13.4248 17.6106 13.4265 17.6005 13.4285 17.5905C13.4305 17.5804 13.4327 17.5705 13.4352 17.5605C13.4377 17.5506 13.4404 17.5408 13.4434 17.531C13.4464 17.5212 13.4496 17.5115 13.453 17.5018C13.4565 17.4922 13.4602 17.4827 13.4641 17.4732C13.468 17.4638 13.4721 17.4544 13.4765 17.4452C13.4809 17.4359 13.4855 17.4268 13.4903 17.4178C13.4951 17.4088 13.5002 17.3999 13.5054 17.3911C13.5107 17.3823 13.5162 17.3737 13.5218 17.3652C13.5275 17.3567 13.5334 17.3483 13.5395 17.3401C13.5456 17.3319 13.5519 17.3238 13.5584 17.3159C13.5649 17.308 13.5715 17.3003 13.5784 17.2927C13.5853 17.2851 13.5923 17.2777 13.5996 17.2705C13.6068 17.2632 13.6142 17.2562 13.6218 17.2493C13.6294 17.2424 13.6371 17.2358 13.645 17.2293C13.6529 17.2228 13.661 17.2165 13.6692 17.2104C13.6774 17.2043 13.6858 17.1984 13.6943 17.1927C13.7028 17.1871 13.7114 17.1816 13.7202 17.1763C13.729 17.1711 13.7379 17.166 13.7469 17.1612C13.7559 17.1564 13.765 17.1518 13.7743 17.1474C13.7835 17.143 13.7929 17.1389 13.8023 17.135C13.8118 17.1311 13.8213 17.1274 13.831 17.1239C13.8406 17.1205 13.8503 17.1173 13.8601 17.1143C13.8699 17.1113 13.8797 17.1086 13.8896 17.1061C13.8996 17.1036 13.9095 17.1014 13.9196 17.0994C13.9296 17.0974 13.9397 17.0957 13.9498 17.0942C13.9599 17.0927 13.9701 17.0914 13.9802 17.0904C13.9904 17.0894 14.0006 17.0887 14.0108 17.0881C14.021 17.0877 14.0313 17.0874 14.0415 17.0874L22.0915 17.0874C22.1017 17.0874 22.112 17.0877 22.1222 17.0882C22.1324 17.0887 22.1426 17.0894 22.1528 17.0904C22.1629 17.0914 22.1731 17.0927 22.1832 17.0942C22.1933 17.0957 22.2034 17.0974 22.2134 17.0994C22.2235 17.1014 22.2334 17.1036 22.2434 17.1061C22.2533 17.1086 22.2631 17.1113 22.2729 17.1143C22.2827 17.1173 22.2924 17.1205 22.302 17.1239C22.3117 17.1274 22.3212 17.1311 22.3307 17.135C22.3401 17.1389 22.3495 17.143 22.3587 17.1474C22.368 17.1518 22.3771 17.1564 22.3861 17.1612C22.3952 17.166 22.404 17.1711 22.4128 17.1763C22.4216 17.1816 22.4302 17.1871 22.4387 17.1927C22.4472 17.1984 22.4556 17.2043 22.4638 17.2104C22.472 17.2165 22.4801 17.2228 22.488 17.2293C22.4959 17.2358 22.5037 17.2424 22.5112 17.2493C22.5188 17.2562 22.5262 17.2632 22.5334 17.2705C22.5407 17.2777 22.5477 17.2851 22.5546 17.2927C22.5615 17.3003 22.5681 17.308 22.5746 17.3159C22.5811 17.3238 22.5874 17.3319 22.5935 17.3401C22.5996 17.3483 22.6055 17.3567 22.6112 17.3652C22.6169 17.3737 22.6223 17.3823 22.6276 17.3911C22.6328 17.3999 22.6379 17.4088 22.6427 17.4178C22.6475 17.4268 22.6521 17.4359 22.6565 17.4452C22.6609 17.4544 22.665 17.4638 22.6689 17.4732C22.6729 17.4827 22.6765 17.4922 22.68 17.5018C22.6834 17.5115 22.6866 17.5212 22.6896 17.531C22.6926 17.5408 22.6953 17.5506 22.6978 17.5605C22.7003 17.5705 22.7025 17.5804 22.7045 17.5905C22.7065 17.6005 22.7082 17.6106 22.7097 17.6207C22.7113 17.6308 22.7125 17.641 22.7135 17.6511C22.7145 17.6613 22.7153 17.6715 22.7157 17.6817C22.7162 17.6919 22.7165 17.7022 22.7165 17.7124C22.7165 17.7226 22.7162 17.7329 22.7158 17.7431C22.7153 17.7533 22.7145 17.7635 22.7135 17.7737C22.7125 17.7838 22.7113 17.794 22.7097 17.8041C22.7082 17.8142 22.7065 17.8243 22.7045 17.8343C22.7025 17.8444 22.7003 17.8543 22.6978 17.8643C22.6953 17.8742 22.6926 17.884 22.6896 17.8938C22.6866 17.9036 22.6834 17.9133 22.68 17.9229C22.6765 17.9326 22.6729 17.9421 22.6689 17.9516C22.665 17.961 22.6609 17.9704 22.6565 17.9796C22.6521 17.9889 22.6475 17.998 22.6427 18.007C22.6379 18.016 22.6328 18.0249 22.6276 18.0337C22.6223 18.0425 22.6169 18.0511 22.6112 18.0596C22.6055 18.0681 22.5996 18.0765 22.5935 18.0847C22.5874 18.0929 22.5811 18.101 22.5746 18.1089C22.5681 18.1168 22.5615 18.1245 22.5546 18.1321C22.5477 18.1397 22.5407 18.1471 22.5334 18.1543C22.5262 18.1616 22.5188 18.1686 22.5112 18.1755C22.5037 18.1824 22.4959 18.189 22.488 18.1955C22.4801 18.202 22.472 18.2083 22.4638 18.2144C22.4556 18.2205 22.4472 18.2264 22.4387 18.2321C22.4302 18.2377 22.4216 18.2432 22.4128 18.2485C22.404 18.2537 22.3951 18.2588 22.3861 18.2636C22.3771 18.2684 22.368 18.273 22.3587 18.2774C22.3495 18.2818 22.3401 18.2859 22.3307 18.2898C22.3212 18.2937 22.3117 18.2974 22.302 18.3009C22.2924 18.3043 22.2827 18.3075 22.2729 18.3105C22.2631 18.3135 22.2533 18.3162 22.2434 18.3187C22.2334 18.3212 22.2235 18.3234 22.2134 18.3254C22.2034 18.3274 22.1933 18.3291 22.1832 18.3306C22.1731 18.3321 22.1629 18.3334 22.1528 18.3344C22.1426 18.3354 22.1324 18.3361 22.1222 18.3366C22.112 18.3371 22.1017 18.3374 22.0915 18.3374Z"   fill="#E6EAF5" ></path><path d="M18.0664 22.375C18.0562 22.375 18.046 22.3747 18.0357 22.3742C18.0255 22.3737 18.0153 22.373 18.0051 22.372C17.995 22.371 17.9848 22.3697 17.9747 22.3682C17.9646 22.3667 17.9545 22.365 17.9445 22.363C17.9344 22.361 17.9245 22.3587 17.9146 22.3563C17.9046 22.3538 17.8948 22.3511 17.885 22.3481C17.8752 22.3451 17.8655 22.3419 17.8558 22.3385C17.8462 22.335 17.8367 22.3313 17.8272 22.3274C17.8178 22.3235 17.8084 22.3194 17.7992 22.315C17.7899 22.3106 17.7808 22.306 17.7718 22.3012C17.7628 22.2964 17.7539 22.2913 17.7451 22.2861C17.7363 22.2808 17.7277 22.2754 17.7192 22.2697C17.7107 22.264 17.7023 22.2581 17.6941 22.252C17.6859 22.2459 17.6778 22.2396 17.6699 22.2331C17.662 22.2266 17.6543 22.22 17.6467 22.2131C17.6391 22.2062 17.6317 22.1992 17.6245 22.1919C17.6172 22.1847 17.6102 22.1773 17.6033 22.1697C17.5964 22.1621 17.5898 22.1544 17.5833 22.1465C17.5768 22.1386 17.5705 22.1305 17.5644 22.1223C17.5583 22.1141 17.5524 22.1057 17.5467 22.0972C17.541 22.0887 17.5356 22.0801 17.5303 22.0713C17.5251 22.0625 17.52 22.0537 17.5152 22.0446C17.5104 22.0356 17.5058 22.0265 17.5014 22.0172C17.497 22.008 17.4929 21.9986 17.489 21.9892C17.4851 21.9797 17.4814 21.9702 17.4779 21.9605C17.4745 21.9509 17.4713 21.9412 17.4683 21.9314C17.4654 21.9216 17.4626 21.9118 17.4601 21.9019C17.4576 21.8919 17.4554 21.882 17.4534 21.8719C17.4514 21.8619 17.4497 21.8518 17.4482 21.8417C17.4467 21.8316 17.4454 21.8214 17.4444 21.8113C17.4434 21.8011 17.4427 21.7909 17.4422 21.7807C17.4417 21.7705 17.4414 21.7602 17.4414 21.75L17.4414 13.6875C17.4414 13.6773 17.4417 13.667 17.4422 13.6568C17.4427 13.6466 17.4434 13.6364 17.4444 13.6262C17.4454 13.6161 17.4467 13.6059 17.4482 13.5958C17.4497 13.5857 17.4514 13.5756 17.4534 13.5656C17.4554 13.5555 17.4576 13.5456 17.4601 13.5356C17.4626 13.5257 17.4654 13.5159 17.4683 13.5061C17.4713 13.4963 17.4745 13.4866 17.4779 13.4769C17.4814 13.4673 17.4851 13.4578 17.489 13.4483C17.4929 13.4389 17.497 13.4295 17.5014 13.4203C17.5058 13.411 17.5104 13.4019 17.5152 13.3929C17.52 13.3838 17.5251 13.375 17.5303 13.3662C17.5356 13.3574 17.541 13.3488 17.5467 13.3403C17.5524 13.3318 17.5583 13.3234 17.5644 13.3152C17.5705 13.307 17.5768 13.2989 17.5833 13.291C17.5898 13.2831 17.5964 13.2754 17.6033 13.2678C17.6102 13.2602 17.6172 13.2528 17.6245 13.2456C17.6317 13.2383 17.6391 13.2313 17.6467 13.2244C17.6543 13.2175 17.662 13.2109 17.6699 13.2044C17.6778 13.1979 17.6859 13.1916 17.6941 13.1855C17.7023 13.1794 17.7107 13.1735 17.7192 13.1678C17.7277 13.1622 17.7363 13.1567 17.7451 13.1514C17.7539 13.1462 17.7628 13.1411 17.7718 13.1363C17.7808 13.1315 17.7899 13.1269 17.7992 13.1225C17.8084 13.1181 17.8178 13.114 17.8272 13.1101C17.8367 13.1062 17.8462 13.1025 17.8558 13.099C17.8655 13.0956 17.8752 13.0924 17.885 13.0894C17.8948 13.0864 17.9046 13.0837 17.9146 13.0812C17.9245 13.0787 17.9344 13.0765 17.9445 13.0745C17.9545 13.0725 17.9646 13.0708 17.9747 13.0693C17.9848 13.0678 17.995 13.0665 18.0051 13.0655C18.0153 13.0645 18.0255 13.0638 18.0357 13.0633C18.046 13.0628 18.0562 13.0625 18.0664 13.0625C18.0766 13.0625 18.0869 13.0628 18.0971 13.0633C18.1073 13.0638 18.1175 13.0645 18.1277 13.0655C18.1378 13.0665 18.148 13.0678 18.1581 13.0693C18.1682 13.0708 18.1783 13.0725 18.1883 13.0745C18.1984 13.0765 18.2083 13.0787 18.2183 13.0812C18.2282 13.0837 18.238 13.0864 18.2478 13.0894C18.2576 13.0924 18.2673 13.0956 18.277 13.099C18.2866 13.1025 18.2961 13.1062 18.3056 13.1101C18.315 13.114 18.3244 13.1181 18.3336 13.1225C18.3429 13.1269 18.352 13.1315 18.361 13.1363C18.37 13.1411 18.3789 13.1462 18.3877 13.1514C18.3965 13.1567 18.4051 13.1622 18.4136 13.1678C18.4221 13.1735 18.4305 13.1794 18.4387 13.1855C18.4469 13.1916 18.455 13.1979 18.4629 13.2044C18.4708 13.2109 18.4786 13.2175 18.4861 13.2244C18.4937 13.2313 18.5011 13.2383 18.5083 13.2456C18.5156 13.2528 18.5226 13.2602 18.5295 13.2678C18.5364 13.2754 18.543 13.2831 18.5495 13.291C18.556 13.2989 18.5623 13.307 18.5684 13.3152C18.5745 13.3234 18.5804 13.3318 18.5861 13.3403C18.5917 13.3488 18.5972 13.3574 18.6025 13.3662C18.6077 13.375 18.6128 13.3838 18.6176 13.3929C18.6224 13.4019 18.627 13.411 18.6314 13.4203C18.6358 13.4295 18.6399 13.4389 18.6438 13.4483C18.6477 13.4578 18.6514 13.4673 18.6549 13.4769C18.6583 13.4866 18.6615 13.4963 18.6645 13.5061C18.6675 13.5159 18.6702 13.5257 18.6727 13.5356C18.6752 13.5456 18.6774 13.5555 18.6794 13.5656C18.6814 13.5756 18.6831 13.5857 18.6846 13.5958C18.6861 13.6059 18.6874 13.6161 18.6884 13.6262C18.6894 13.6364 18.6902 13.6466 18.6906 13.6568C18.6912 13.667 18.6914 13.6773 18.6914 13.6875L18.6914 21.75C18.6914 21.7602 18.6912 21.7705 18.6906 21.7807C18.6902 21.7909 18.6894 21.8011 18.6884 21.8113C18.6874 21.8214 18.6861 21.8316 18.6846 21.8417C18.6831 21.8518 18.6814 21.8619 18.6794 21.8719C18.6774 21.882 18.6752 21.8919 18.6727 21.9019C18.6702 21.9118 18.6675 21.9216 18.6645 21.9314C18.6615 21.9412 18.6583 21.9509 18.6549 21.9605C18.6514 21.9702 18.6477 21.9797 18.6438 21.9892C18.6399 21.9986 18.6358 22.008 18.6314 22.0172C18.627 22.0265 18.6224 22.0356 18.6176 22.0446C18.6128 22.0536 18.6077 22.0625 18.6025 22.0713C18.5972 22.0801 18.5917 22.0887 18.5861 22.0972C18.5804 22.1057 18.5745 22.1141 18.5684 22.1223C18.5623 22.1305 18.556 22.1386 18.5495 22.1465C18.543 22.1544 18.5364 22.1621 18.5295 22.1697C18.5226 22.1773 18.5156 22.1847 18.5083 22.1919C18.5011 22.1992 18.4937 22.2062 18.4861 22.2131C18.4786 22.22 18.4708 22.2266 18.4629 22.2331C18.455 22.2396 18.4469 22.2459 18.4387 22.252C18.4305 22.2581 18.4221 22.264 18.4136 22.2697C18.4051 22.2754 18.3965 22.2808 18.3877 22.2861C18.3789 22.2913 18.37 22.2964 18.361 22.3012C18.352 22.306 18.3429 22.3106 18.3336 22.315C18.3244 22.3194 18.315 22.3235 18.3056 22.3274C18.2961 22.3313 18.2866 22.335 18.277 22.3385C18.2673 22.3419 18.2576 22.3451 18.2478 22.3481C18.238 22.3511 18.2282 22.3538 18.2183 22.3563C18.2083 22.3587 18.1984 22.361 18.1883 22.363C18.1783 22.365 18.1682 22.3667 18.1581 22.3682C18.148 22.3697 18.1378 22.371 18.1277 22.372C18.1175 22.373 18.1073 22.3737 18.0971 22.3742C18.0869 22.3747 18.0766 22.375 18.0664 22.375Z"   fill="#E6EAF5" ></path></svg>