<svg xmlns="http://www.w3.org/2000/svg" xmlns:xlink="http://www.w3.org/1999/xlink" width="1440" height="900" viewBox="0 0 1440 900" fill="none"><g  clip-path="url(#clip-path-0_1)"><path     fill="#FFFFFF"  d="M0 900L1440 900L1440 0L0 0L0 900Z"></path><path  transform="translate(0, 1)"   fill="#283089"  d="M0 899L1440 899L1440 0L0 0L0 899Z"></path><path  transform="translate(0, 1)"  style="mix-blend-mode:normal" fill="#063190"  d="M0 898L1440 898L1440 0L0 0L0 898Z"></path><path  transform="translate(0, 1)"  style="mix-blend-mode:normal" fill="url(#linear_fill_0_9_0)"  d="M0 898L1440 898L1440 0L0 0L0 898Z"></path><rect x="-53" y="612" width="1546" height="281"   fill="url(#pattern_fill_3_101)" ></rect><path  transform="translate(13, 64)"  style="mix-blend-mode:normal" fill="url(#linear_fill_0_11_0)"  d="M0 931.292L0 32C0 14.3269 14.3269 0 32 0L1407.99 0C1425.66 0 1439.99 14.3269 1439.99 32L1439.99 931.292C1439.99 948.965 1425.66 963.292 1407.99 963.292L32 963.292C14.3269 963.292 0 948.965 0 931.292Z"></path><path  transform="translate(13, 64)"  style="mix-blend-mode:normal" fill="url(#linear_fill_0_11_1)"  d="M0 931.292L0 32C0 14.3269 14.3269 0 32 0L1407.99 0C1425.66 0 1439.99 14.3269 1439.99 32L1439.99 931.292C1439.99 948.965 1425.66 963.292 1407.99 963.292L32 963.292C14.3269 963.292 0 948.965 0 931.292Z"></path><rect x="83" y="56" width="469" height="115"   fill="url(#pattern_fill_3_97)" ></rect><path     fill="#FFFFFF"  d="M621.257 105.083C622.793 107.521 624.172 110.786 624.605 112.871L628.779 111.297C628.307 109.134 626.731 106.066 625.156 103.667L621.257 105.083ZM602.276 115.781L603.064 120.069C607.198 119.361 612.672 118.377 617.871 117.433L617.595 113.461C612.042 114.365 606.175 115.27 602.276 115.781ZM622.203 92.3387C621.1 96.4687 618.973 100.559 616.414 103.077C617.477 103.667 619.367 104.886 620.233 105.633C621.454 104.217 622.675 102.408 623.738 100.402L632.402 100.402C632.048 110.707 631.536 114.837 630.669 115.821C630.276 116.332 629.882 116.411 629.212 116.411C628.425 116.411 626.731 116.411 624.88 116.253C625.668 117.512 626.219 119.4 626.298 120.737C628.267 120.816 630.197 120.816 631.418 120.619C632.835 120.423 633.78 119.99 634.726 118.731C636.025 117.079 636.537 112.005 637.049 98.396C637.088 97.806 637.128 96.39 637.128 96.39L625.589 96.39C625.983 95.3673 626.337 94.3447 626.653 93.322L622.203 92.3387ZM602.67 86.6353L602.67 90.726L610.9 90.726L610.9 92.8893L615.508 92.8893L615.508 90.726L624.526 90.726L624.526 92.85L629.133 92.85L629.133 90.726L637.719 90.726L637.719 86.6353L629.133 86.6353L629.133 84L624.526 84L624.526 86.6353L615.508 86.6353L615.508 84L610.9 84L610.9 86.6353L602.67 86.6353ZM603.93 113.146C605.033 112.674 606.726 112.32 617.083 111.022C617.083 110.078 617.241 108.308 617.437 107.128L609.995 107.875C612.751 105.24 615.468 102.093 617.753 98.9073L614.09 96.9013C613.342 98.1207 612.515 99.34 611.648 100.52L607.947 100.638C609.64 98.6713 611.333 96.3113 612.672 94.03L608.537 92.3387C607.159 95.564 604.796 98.7107 604.048 99.576C603.339 100.441 602.67 101.031 602 101.189C602.433 102.29 603.103 104.257 603.339 105.122C603.969 104.886 604.914 104.65 608.459 104.414C607.317 105.751 606.293 106.735 605.781 107.207C604.521 108.426 603.615 109.134 602.63 109.331C603.103 110.393 603.733 112.399 603.93 113.146Z"></path><path     fill="#FFFFFF"  d=""></path><path     fill="#FFFFFF"  d="M656.328 84L656.328 91.3553L651.169 91.3553L651.169 95.7213L656.052 95.7213C654.91 100.481 652.745 106.027 650.342 109.095C651.13 110.353 652.154 112.517 652.587 113.854C653.965 111.809 655.265 108.859 656.328 105.594L656.328 120.934L660.581 120.934L660.581 102.959C661.329 104.532 662.038 106.145 662.432 107.246L665.189 104.06C664.559 102.919 661.566 98.3567 660.581 96.98L660.581 95.7213L664.637 95.7213L664.637 91.3553L660.581 91.3553L660.581 84L656.328 84ZM681.532 91.8667C680.744 94.1873 679.799 96.508 678.696 98.75C677.082 96.5473 675.388 94.4233 673.853 92.496L670.387 94.738C672.317 97.2553 674.443 100.166 676.373 103.037C674.522 106.105 672.435 108.859 670.19 110.983L670.19 90.3327L687.045 90.3327L687.045 86.0847L665.583 86.0847L665.583 119.518L687.754 119.518L687.754 115.27L670.19 115.27L670.19 111.101C671.214 111.848 672.907 113.421 673.656 114.247C675.507 112.281 677.318 109.842 679.051 107.167C680.469 109.527 681.689 111.73 682.477 113.539L686.415 110.747C685.352 108.465 683.58 105.673 681.571 102.762C683.225 99.6547 684.682 96.3507 685.903 93.0467L681.532 91.8667Z"></path><g ><path     fill="#FFFFFF"  d="M821.096 95.472L825.488 95.472L825.488 100.128L821.096 100.128L821.096 95.472ZM818.984 93.456L818.984 102.168L827.744 102.168L827.744 93.456L818.984 93.456ZM812.72 109.224L823.352 109.224L823.352 111.168L812.72 111.168L812.72 109.224ZM812.72 107.52L812.72 105.648L823.352 105.648L823.352 107.52L812.72 107.52ZM810.488 103.824L810.488 113.856L812.72 113.856L812.72 112.992L823.352 112.992L823.352 113.808L825.68 113.808L825.68 103.824L810.488 103.824ZM811.928 95.28L811.928 96.528L811.904 97.272L808.856 97.272C809.36 96.72 809.84 96.024 810.272 95.28L811.928 95.28ZM809.696 91.464C809.192 93.264 808.256 95.064 807.008 96.24C807.488 96.48 808.328 96.96 808.736 97.272L807.104 97.272L807.104 99.072L811.496 99.072C810.92 100.416 809.672 101.832 806.864 102.936C807.368 103.296 808.016 103.992 808.304 104.472C810.68 103.392 812.096 102.096 812.936 100.776C814.112 101.568 815.672 102.72 816.392 103.296L817.976 101.808C817.304 101.352 814.616 99.768 813.656 99.288L813.728 99.072L818.048 99.072L818.048 97.272L814.064 97.272L814.088 96.576L814.088 95.28L817.448 95.28L817.448 93.48L811.16 93.48C811.376 92.976 811.568 92.424 811.736 91.896L809.696 91.464ZM838.856 102.072L838.856 103.8L834.416 103.8L834.416 102.072L838.856 102.072ZM832.304 100.176L832.304 113.832L834.416 113.832L834.416 109.104L838.856 109.104L838.856 111.384C838.856 111.672 838.76 111.768 838.472 111.768C838.136 111.792 837.152 111.792 836.12 111.744C836.432 112.32 836.768 113.208 836.888 113.808C838.352 113.808 839.432 113.76 840.152 113.424C840.896 113.088 841.088 112.488 841.088 111.408L841.088 100.176L832.304 100.176ZM834.416 105.528L838.856 105.528L838.856 107.352L834.416 107.352L834.416 105.528ZM850.472 93.264C849.2 93.96 847.28 94.776 845.408 95.448L845.408 91.632L843.176 91.632L843.176 99.288C843.176 101.544 843.8 102.216 846.344 102.216C846.848 102.216 849.56 102.216 850.112 102.216C852.152 102.216 852.776 101.4 853.04 98.4C852.416 98.256 851.48 97.92 851.048 97.56C850.928 99.816 850.76 100.2 849.896 100.2C849.296 100.2 847.064 100.2 846.608 100.2C845.576 100.2 845.408 100.08 845.408 99.264L845.408 97.272C847.64 96.624 850.088 95.808 851.96 94.92L850.472 93.264ZM850.712 103.992C849.44 104.832 847.424 105.72 845.432 106.44L845.432 102.84L843.2 102.84L843.2 110.712C843.2 112.992 843.848 113.664 846.392 113.664C846.92 113.664 849.68 113.664 850.232 113.664C852.368 113.664 852.992 112.776 853.256 109.464C852.632 109.32 851.72 108.984 851.24 108.624C851.144 111.216 850.976 111.672 850.04 111.672C849.416 111.672 847.136 111.672 846.68 111.672C845.648 111.672 845.432 111.528 845.432 110.712L845.432 108.312C847.784 107.616 850.352 106.728 852.224 105.672L850.712 103.992ZM832.04 98.736C832.592 98.52 833.48 98.376 839.72 97.896C839.936 98.352 840.104 98.76 840.224 99.144L842.24 98.28C841.784 96.816 840.488 94.656 839.288 93.024L837.392 93.768C837.896 94.512 838.424 95.352 838.88 96.192L834.368 96.48C835.376 95.232 836.408 93.696 837.176 92.184L834.776 91.512C834.056 93.336 832.808 95.16 832.424 95.64C832.016 96.168 831.656 96.504 831.272 96.6C831.536 97.2 831.92 98.28 832.04 98.736ZM866.864 104.088C867.896 105.576 868.904 107.568 869.24 108.864L871.232 108.096C870.872 106.776 869.792 104.856 868.736 103.392L866.864 104.088ZM855.248 111L855.632 113.088C858.056 112.68 861.368 112.104 864.56 111.576L864.416 109.632C861.056 110.16 857.552 110.712 855.248 111ZM867.512 96.576C866.792 99.096 865.496 101.568 863.912 103.152C864.44 103.44 865.352 104.064 865.784 104.4C866.552 103.512 867.296 102.384 867.968 101.136L873.872 101.136C873.632 107.976 873.272 110.664 872.744 111.264C872.504 111.552 872.264 111.624 871.856 111.624C871.376 111.624 870.32 111.624 869.144 111.504C869.504 112.104 869.768 113.04 869.816 113.688C870.992 113.736 872.168 113.736 872.864 113.664C873.656 113.568 874.184 113.328 874.664 112.68C875.48 111.696 875.792 108.648 876.128 100.2C876.128 99.912 876.152 99.192 876.152 99.192L868.88 99.192C869.168 98.496 869.456 97.776 869.672 97.056L867.512 96.576ZM855.416 93.384L855.416 95.376L860.672 95.376L860.672 96.912L862.88 96.912L862.88 95.376L868.952 95.376L868.952 96.816L871.16 96.816L871.16 95.376L876.632 95.376L876.632 93.384L871.16 93.384L871.16 91.584L868.952 91.584L868.952 93.384L862.88 93.384L862.88 91.584L860.672 91.584L860.672 93.384L855.416 93.384ZM856.112 109.008C856.688 108.72 857.624 108.528 864.08 107.712C864.08 107.256 864.128 106.392 864.248 105.816L859.208 106.368C860.984 104.688 862.76 102.672 864.32 100.584L862.496 99.6C862.016 100.344 861.488 101.088 860.936 101.784L858.2 101.928C859.328 100.632 860.456 99.048 861.392 97.512L859.4 96.672C858.464 98.688 856.904 100.728 856.448 101.256C855.968 101.784 855.56 102.168 855.176 102.24C855.416 102.768 855.728 103.752 855.824 104.184C856.208 104.016 856.784 103.92 859.352 103.728C858.488 104.712 857.72 105.48 857.36 105.816C856.592 106.536 856.016 106.992 855.464 107.112C855.704 107.616 856.016 108.6 856.112 109.008ZM888.776 103.536L888.776 105.168L879.392 105.168L879.392 107.256L888.776 107.256L888.776 111.168C888.776 111.504 888.656 111.6 888.176 111.624C887.696 111.648 885.992 111.648 884.288 111.6C884.648 112.2 885.08 113.16 885.224 113.784C887.36 113.784 888.8 113.76 889.784 113.424C890.792 113.088 891.104 112.464 891.104 111.216L891.104 107.256L900.728 107.256L900.728 105.168L891.104 105.168L891.104 104.424C893.216 103.464 895.352 102.12 896.84 100.752L895.4 99.6L894.92 99.72L883.52 99.72L883.52 101.712L892.328 101.712C891.248 102.408 889.976 103.08 888.776 103.536ZM888.008 92.112C888.704 93.144 889.4 94.512 889.736 95.496L884.96 95.496L885.896 95.04C885.512 94.104 884.504 92.784 883.64 91.8L881.72 92.664C882.416 93.504 883.184 94.608 883.64 95.496L879.776 95.496L879.776 100.488L881.936 100.488L881.936 97.512L898.136 97.512L898.136 100.488L900.368 100.488L900.368 95.496L896.624 95.496C897.344 94.584 898.136 93.504 898.808 92.472L896.504 91.728C895.952 92.856 895.04 94.368 894.224 95.496L890.624 95.496L891.944 94.968C891.632 93.96 890.816 92.472 890.024 91.368L888.008 92.112ZM915.008 93.648L915.008 113.16L917.216 113.16L917.216 111.336L921.608 111.336L921.608 112.872L923.912 112.872L923.912 93.648L915.008 93.648ZM917.216 109.2L917.216 95.784L921.608 95.784L921.608 109.2L917.216 109.2ZM905.48 91.584C904.952 94.416 903.992 97.248 902.624 99.048C903.152 99.36 904.064 99.984 904.472 100.368C905.144 99.408 905.744 98.184 906.272 96.84L907.736 96.84L907.736 100.44L907.736 101.184L902.984 101.184L902.984 103.344L907.592 103.344C907.232 106.368 906.104 109.656 902.696 112.08C903.152 112.416 903.992 113.328 904.304 113.784C906.848 111.936 908.312 109.512 909.104 107.04C910.376 108.552 912.008 110.592 912.8 111.792L914.36 109.848C913.664 109.032 910.88 105.912 909.68 104.736L909.896 103.344L914.312 103.344L914.312 101.184L910.04 101.184L910.04 100.488L910.04 96.84L913.64 96.84L913.64 94.728L906.992 94.728C907.256 93.84 907.496 92.928 907.688 92.016L905.48 91.584ZM938.696 95.376L945.248 95.376L945.248 102.024L938.696 102.024L938.696 95.376ZM936.44 93.192L936.44 104.208L947.6 104.208L947.6 93.192L936.44 93.192ZM943.496 107.04C944.768 109.152 946.112 111.936 946.592 113.688L948.872 112.8C948.344 111.048 946.904 108.336 945.608 106.296L943.496 107.04ZM938.048 106.368C937.352 108.744 936.104 111.048 934.52 112.512C935.072 112.824 936.08 113.472 936.536 113.832C938.12 112.176 939.56 109.584 940.4 106.872L938.048 106.368ZM928.232 93.48C929.528 94.608 931.208 96.192 931.976 97.248L933.536 95.664C932.744 94.656 931.016 93.144 929.72 92.088L928.232 93.48ZM927.08 99.048L927.08 101.232L930.224 101.232L930.224 108.936C930.224 110.304 929.336 111.336 928.808 111.792C929.216 112.104 929.936 112.848 930.2 113.304C930.608 112.752 931.352 112.176 935.672 108.648C935.384 108.192 934.976 107.304 934.784 106.68L932.432 108.552L932.432 99.048L927.08 99.048ZM957.776 106.296C957.992 106.08 958.928 105.96 960.128 105.96L964.04 105.96L964.04 108.36L955.688 108.36L955.688 110.448L964.04 110.448L964.04 113.832L966.296 113.832L966.296 110.448L972.944 110.448L972.944 108.36L966.296 108.36L966.296 105.96L971.336 105.96L971.336 103.92L966.296 103.92L966.296 101.616L964.04 101.616L964.04 103.92L960.032 103.92C960.704 102.936 961.376 101.808 962 100.632L972.032 100.632L972.032 98.592L963.032 98.592L963.704 97.056L961.352 96.288C961.112 97.056 960.8 97.848 960.488 98.592L956.312 98.592L956.312 100.632L959.552 100.632C959.048 101.616 958.592 102.384 958.376 102.72C957.896 103.512 957.488 103.992 957.032 104.112C957.296 104.712 957.68 105.84 957.776 106.296ZM961.184 92.064C961.52 92.616 961.856 93.312 962.096 93.936L952.784 93.936L952.784 100.776C952.784 104.304 952.64 109.224 950.648 112.656C951.176 112.896 952.184 113.568 952.568 113.952C954.728 110.28 955.04 104.616 955.04 100.776L955.04 96.048L972.944 96.048L972.944 93.936L964.664 93.936C964.376 93.168 963.92 92.232 963.44 91.536L961.184 92.064Z"></path></g><rect x="701" y="64" width="90" height="77"   fill="url(#pattern_fill_3_65)" ></rect><path    stroke="rgba(3, 196, 251, 1)" stroke-width="5"    d="M556 68L556 141"></path><g ><path     fill="#FFFFFF"  d="M1240.47 56.375L1238.7 56.375Q1238.55 55.6151 1238.16 55.0398Q1237.77 54.4645 1237.22 54.0703Q1236.67 53.6761 1236.01 53.4773Q1235.34 53.2784 1234.61 53.2784Q1233.29 53.2784 1232.22 53.946Q1231.15 54.6136 1230.53 55.9134Q1229.9 57.2131 1229.9 59.1023Q1229.9 60.9915 1230.53 62.2912Q1231.15 63.5909 1232.22 64.2585Q1233.29 64.9261 1234.61 64.9261Q1235.34 64.9261 1236.01 64.7273Q1236.67 64.5284 1237.22 64.1342Q1237.77 63.7401 1238.16 63.1612Q1238.55 62.5824 1238.7 61.8295L1240.47 61.8295Q1240.27 62.9446 1239.74 63.8253Q1239.22 64.706 1238.43 65.3203Q1237.65 65.9347 1236.68 66.2543Q1235.71 66.5739 1234.61 66.5739Q1232.75 66.5739 1231.3 65.6648Q1229.86 64.7557 1229.02 63.0795Q1228.19 61.4034 1228.19 59.1023Q1228.19 56.8011 1229.02 55.125Q1229.86 53.4489 1231.3 52.5398Q1232.75 51.6307 1234.61 51.6307Q1235.71 51.6307 1236.68 51.9503Q1237.65 52.2699 1238.43 52.8842Q1239.22 53.4986 1239.74 54.3757Q1240.27 55.2528 1240.47 56.375ZM1243.31 66.375L1243.31 51.8295L1248.22 51.8295Q1249.93 51.8295 1251.02 52.4439Q1252.11 53.0582 1252.64 54.1023Q1253.16 55.1463 1253.16 56.4318Q1253.16 57.7173 1252.64 58.7685Q1252.12 59.8196 1251.03 60.4411Q1249.95 61.0625 1248.25 61.0625L1244.73 61.0625L1244.73 59.5L1248.19 59.5Q1249.37 59.5 1250.08 59.0952Q1250.79 58.6903 1251.11 57.9979Q1251.43 57.3054 1251.43 56.4318Q1251.43 55.5582 1251.11 54.8693Q1250.79 54.1804 1250.07 53.7862Q1249.35 53.392 1248.16 53.392L1245.07 53.392L1245.07 66.375L1243.31 66.375ZM1265.55 51.8295L1267.31 51.8295L1267.31 61.4602Q1267.31 62.9517 1266.61 64.12Q1265.91 65.2884 1264.64 65.9595Q1263.37 66.6307 1261.66 66.6307Q1259.95 66.6307 1258.68 65.9595Q1257.4 65.2884 1256.71 64.12Q1256.01 62.9517 1256.01 61.4602L1256.01 51.8295L1257.77 51.8295L1257.77 61.3182Q1257.77 62.3835 1258.24 63.2109Q1258.7 64.0384 1259.57 64.5107Q1260.44 64.983 1261.66 64.983Q1262.87 64.983 1263.75 64.5107Q1264.62 64.0384 1265.09 63.2109Q1265.55 62.3835 1265.55 61.3182L1265.55 51.8295ZM1271.83 61.2898Q1271.3 61.2898 1270.93 60.9134Q1270.55 60.5369 1270.55 60.0114Q1270.55 59.4858 1270.93 59.1094Q1271.3 58.733 1271.83 58.733Q1272.36 58.733 1272.73 59.1094Q1273.11 59.4858 1273.11 60.0114Q1273.11 60.3594 1272.93 60.6506Q1272.76 60.9418 1272.47 61.1158Q1272.18 61.2898 1271.83 61.2898ZM1276.35 66.375L1276.35 51.8295L1281.43 51.8295Q1282.95 51.8295 1283.94 52.3516Q1284.93 52.8736 1285.41 53.7507Q1285.89 54.6278 1285.89 55.6932Q1285.89 56.6307 1285.56 57.2415Q1285.23 57.8523 1284.7 58.2074Q1284.16 58.5625 1283.53 58.733L1283.53 58.875Q1284.2 58.9176 1284.88 59.3438Q1285.55 59.7699 1286.01 60.5653Q1286.46 61.3608 1286.46 62.5114Q1286.46 63.6051 1285.96 64.4787Q1285.47 65.3523 1284.39 65.8636Q1283.32 66.375 1281.6 66.375L1276.35 66.375ZM1278.11 64.8125L1281.6 64.8125Q1283.33 64.8125 1284.06 64.1413Q1284.78 63.4702 1284.78 62.5114Q1284.78 61.7727 1284.41 61.1442Q1284.03 60.5156 1283.34 60.1357Q1282.64 59.7557 1281.69 59.7557L1278.11 59.7557L1278.11 64.8125ZM1278.11 58.2216L1281.38 58.2216Q1282.17 58.2216 1282.81 57.9091Q1283.46 57.5966 1283.84 57.0284Q1284.22 56.4602 1284.22 55.6932Q1284.22 54.7344 1283.55 54.0632Q1282.88 53.392 1281.43 53.392L1278.11 53.392L1278.11 58.2216ZM1289.13 66.375L1289.13 55.4659L1290.75 55.4659L1290.75 57.1136L1290.86 57.1136Q1291.16 56.304 1291.94 55.7997Q1292.72 55.2955 1293.7 55.2955Q1293.89 55.2955 1294.17 55.3026Q1294.44 55.3097 1294.59 55.3239L1294.59 57.0284Q1294.5 57.0071 1294.2 56.9609Q1293.9 56.9148 1293.56 56.9148Q1292.77 56.9148 1292.15 57.245Q1291.52 57.5753 1291.17 58.1541Q1290.81 58.733 1290.81 59.4716L1290.81 66.375L1289.13 66.375ZM1299.78 66.6307Q1298.75 66.6307 1297.9 66.2365Q1297.06 65.8423 1296.56 65.093Q1296.06 64.3438 1296.06 63.2784Q1296.06 62.3409 1296.43 61.755Q1296.8 61.169 1297.42 60.8352Q1298.04 60.5014 1298.79 60.3345Q1299.54 60.1676 1300.3 60.0682Q1301.29 59.9403 1301.91 59.8729Q1302.53 59.8054 1302.82 59.642Q1303.11 59.4787 1303.11 59.0739L1303.11 59.017Q1303.11 57.9659 1302.54 57.3835Q1301.96 56.8011 1300.81 56.8011Q1299.61 56.8011 1298.92 57.3267Q1298.24 57.8523 1297.97 58.4489L1296.38 57.8807Q1296.8 56.8864 1297.51 56.3288Q1298.23 55.7713 1299.08 55.5476Q1299.93 55.3239 1300.75 55.3239Q1301.28 55.3239 1301.96 55.4482Q1302.65 55.5724 1303.29 55.956Q1303.93 56.3395 1304.36 57.1136Q1304.78 57.8878 1304.78 59.1875L1304.78 66.375L1303.11 66.375L1303.11 64.8977L1303.02 64.8977Q1302.85 65.2528 1302.45 65.6577Q1302.06 66.0625 1301.4 66.3466Q1300.74 66.6307 1299.78 66.6307ZM1300.04 65.125Q1301.03 65.125 1301.72 64.7344Q1302.4 64.3438 1302.76 63.7259Q1303.11 63.108 1303.11 62.4261L1303.11 60.892Q1303 61.0199 1302.64 61.1229Q1302.28 61.2259 1301.82 61.3004Q1301.35 61.375 1300.92 61.4283Q1300.48 61.4815 1300.21 61.517Q1299.56 61.6023 1298.99 61.7905Q1298.43 61.9787 1298.08 62.3516Q1297.74 62.7244 1297.74 63.3636Q1297.74 64.2372 1298.39 64.6811Q1299.04 65.125 1300.04 65.125ZM1307.85 66.375L1307.85 55.4659L1309.53 55.4659L1309.53 66.375L1307.85 66.375ZM1308.7 53.6477Q1308.21 53.6477 1307.86 53.3139Q1307.51 52.9801 1307.51 52.5114Q1307.51 52.0426 1307.86 51.7088Q1308.21 51.375 1308.7 51.375Q1309.19 51.375 1309.55 51.7088Q1309.9 52.0426 1309.9 52.5114Q1309.9 52.9801 1309.55 53.3139Q1309.19 53.6477 1308.7 53.6477ZM1314.27 59.8125L1314.27 66.375L1312.6 66.375L1312.6 55.4659L1314.22 55.4659L1314.22 57.1705L1314.36 57.1705Q1314.74 56.3395 1315.52 55.8317Q1316.3 55.3239 1317.54 55.3239Q1318.65 55.3239 1319.48 55.7749Q1320.31 56.2259 1320.77 57.1385Q1321.23 58.0511 1321.23 59.4432L1321.23 66.375L1319.56 66.375L1319.56 59.5568Q1319.56 58.2713 1318.89 57.5504Q1318.22 56.8295 1317.06 56.8295Q1316.25 56.8295 1315.63 57.1776Q1315 57.5256 1314.63 58.1932Q1314.27 58.8608 1314.27 59.8125ZM1338.17 55.4659L1334.14 66.375L1332.43 66.375L1328.4 55.4659L1330.22 55.4659L1333.23 64.1591L1333.34 64.1591L1336.35 55.4659L1338.17 55.4659ZM1345.47 51.8295L1345.47 66.375L1343.71 66.375L1343.71 53.6761L1343.63 53.6761L1340.08 56.0341L1340.08 54.2443L1343.71 51.8295L1345.47 51.8295ZM1350.9 66.4886Q1350.37 66.4886 1350 66.1122Q1349.62 65.7358 1349.62 65.2102Q1349.62 64.6847 1350 64.3082Q1350.37 63.9318 1350.9 63.9318Q1351.43 63.9318 1351.8 64.3082Q1352.18 64.6847 1352.18 65.2102Q1352.18 65.5582 1352 65.8494Q1351.83 66.1406 1351.54 66.3146Q1351.26 66.4886 1350.9 66.4886ZM1359.91 66.5739Q1358.3 66.5739 1357.17 65.6967Q1356.04 64.8196 1355.45 63.147Q1354.85 61.4744 1354.85 59.1023Q1354.85 56.7443 1355.45 55.0717Q1356.05 53.3991 1357.18 52.5149Q1358.31 51.6307 1359.91 51.6307Q1361.5 51.6307 1362.63 52.5149Q1363.76 53.3991 1364.36 55.0717Q1364.96 56.7443 1364.96 59.1023Q1364.96 61.4744 1364.37 63.147Q1363.77 64.8196 1362.64 65.6967Q1361.51 66.5739 1359.91 66.5739ZM1359.91 65.0114Q1361.5 65.0114 1362.38 63.4773Q1363.26 61.9432 1363.26 59.1023Q1363.26 57.2131 1362.86 55.8849Q1362.46 54.5568 1361.71 53.8608Q1360.96 53.1648 1359.91 53.1648Q1358.33 53.1648 1357.44 54.7166Q1356.55 56.2685 1356.55 59.1023Q1356.55 60.9915 1356.95 62.3125Q1357.35 63.6335 1358.1 64.3224Q1358.85 65.0114 1359.91 65.0114Z"></path></g></g><defs><clipPath id="clip-path-0_1"><path d="M0 900L1440 900L1440 0L0 0L0 900Z" fill="white"/></clipPath><linearGradient id="linear_fill_0_9_0" x1="0" y1="0" x2="0" y2="0" gradientUnits="userSpaceOnUse"></linearGradient><pattern id="pattern_fill_3_101" patternContentUnits="objectBoundingBox" width="1" height="1"><use transform="translate(0, -0.0006168661902279382) scale(0.00030330603579011223, 0.0016687228873007599) rotate(0)" xlink:href="#image0" /></pattern>
<image id="image0" width="3297" height="600" xlink:href="./login-bg-img0.png" />
<radialGradient id="linear_fill_0_11_0" cx="0" cy="0" r="1" gradientTransform="translate(0 0) rotate(90) scale(0, 0)" gradientUnits="userSpaceOnUse"></radialGradient><radialGradient id="linear_fill_0_11_1" cx="0" cy="0" r="1" gradientTransform="translate(0 0) rotate(90) scale(0, 0)" gradientUnits="userSpaceOnUse"></radialGradient><pattern id="pattern_fill_3_97" patternContentUnits="objectBoundingBox" width="1" height="1"><use transform="translate(-0.1308393099437876, 0) scale(0.0011145570847063385, 0.004545454545454545) rotate(0)" xlink:href="#image1" /></pattern>
<image id="image1" width="898" height="220" xlink:href="./login-bg-img1.png" />
<pattern id="pattern_fill_3_65" patternContentUnits="objectBoundingBox" width="1" height="1"><use transform="translate(0, -0.004879735648966349) scale(0.0019723865877712033, 0.002305386920771536) rotate(0)" xlink:href="#image2" /></pattern>
<image id="image2" width="507" height="438" xlink:href="./login-bg-img2.png" />
</defs></svg>
