<svg xmlns="http://www.w3.org/2000/svg" xmlns:xlink="http://www.w3.org/1999/xlink" width="817.999755859375" height="418" viewBox="0 0 817.999755859375 418" fill="none"><path  transform="translate(8.999755859375, 7)"   fill="#E0E0E0"  d="M0 368L0 32C0 14.3269 14.3269 0 32 0L768 0C785.673 0 800 14.3269 800 32L800 368C800 385.673 785.673 400 768 400L32 400C14.3269 400 0 385.673 0 368Z"></path><path  transform="translate(8.999755859375, 7)"  style="mix-blend-mode:normal" fill="#000000" fill-opacity="0" d="M736 0C766.17 0 781.25 0 790.63 9.37L790.63 9.37C800 18.75 800 33.83 800 64L800 336C800 366.17 800 381.25 790.63 390.63L790.63 390.63C781.25 400 766.17 400 736 400L64 400C33.83 400 18.75 400 9.37 390.63L9.37 390.63C0 381.25 0 366.17 0 336L0 64C0 33.83 0 18.75 9.37 9.37L9.37 9.37C18.75 0 33.83 0 64 0L736 0Z"></path><g filter="url(#filter_3_86)"><g  clip-path="url(#clip-path-3_86)"><path  transform="translate(9, 7)"   fill="#E6EAF5"  d="M0 368L0 32C0 14.3269 14.3269 0 32 0L768 0C785.673 0 800 14.3269 800 32L800 368C800 385.673 785.673 400 768 400L32 400C14.3269 400 0 385.673 0 368Z"></path><g  clip-path="url(#clip-path-3_124)"><rect  x="-81.000244140625" y="7" width="490" height="400" rx="108"    fill="#6A83BC" ></rect><rect  x="-91.000244140625" y="7" width="460" height="400" rx="108"    fill="#395AA7" ></rect><g  clip-path="url(#clip-path-3_134)"><g ><path     fill="#FFFFFF"  d="M104.08 133.02C105.64 135.12 107.35 137.58 108.91 139.95C107.41 142.8 105.55 145.11 103.42 146.64C104.23 147.24 105.28 148.5 105.85 149.34C107.8 147.75 109.54 145.74 110.98 143.34C111.79 144.69 112.48 145.98 112.96 147.06L115.78 144.66C115.12 143.25 114.07 141.54 112.87 139.71C114.4 136.14 115.51 131.94 116.11 127.14L113.92 126.39L113.35 126.54L104.2 126.54L104.2 129.69L112.36 129.69C111.94 132.03 111.31 134.28 110.53 136.35C109.21 134.49 107.83 132.63 106.6 131.01L104.08 133.02ZM118.6 123.36C118.15 127.89 117.16 132.18 115.15 134.79C115.93 135.24 117.4 136.29 118 136.83C119.11 135.21 120.01 133.14 120.67 130.77L127.81 130.77C127.45 132.3 127.03 133.8 126.61 134.88L129.43 135.84C130.33 133.86 131.26 130.83 131.86 128.07L129.43 127.41L128.89 127.53L121.45 127.53C121.66 126.33 121.87 125.07 122.02 123.78L118.6 123.36ZM121.33 132.18L121.33 134.46C121.33 138.51 120.7 144.75 113.53 148.98C114.37 149.55 115.57 150.75 116.08 151.5C120.01 149.07 122.17 146.04 123.34 143.04C124.75 146.79 126.85 149.7 130.15 151.5C130.66 150.54 131.68 149.13 132.46 148.44C128.02 146.43 125.83 141.96 124.69 136.41L124.75 134.52L124.75 132.18L121.33 132.18ZM134.62 126.93C136.45 128.13 138.76 129.93 139.81 131.16L142.12 128.76C140.98 127.53 138.64 125.85 136.78 124.77L134.62 126.93ZM141.13 133.59L134.29 133.59L134.29 136.89L137.62 136.89L137.62 145.41C136.39 146.04 135.07 147.06 133.84 148.29L136.18 151.53C137.47 149.73 138.91 147.87 139.84 147.87C140.5 147.87 141.49 148.77 142.69 149.52C144.76 150.69 147.19 151.05 150.85 151.05C154.06 151.05 158.83 150.9 161.08 150.72C161.14 149.76 161.68 148.02 162.07 147.03C159.01 147.48 154.06 147.75 150.97 147.75C147.73 147.75 145.09 147.6 143.14 146.4C142.27 145.89 141.64 145.44 141.13 145.14L141.13 133.59ZM143.35 144.24C144.04 143.76 145.12 143.34 150.91 141.72C150.79 140.97 150.7 139.53 150.76 138.54L146.83 139.5L146.83 128.13C148.36 127.59 149.92 126.96 151.3 126.21L151.3 146.82L154.57 146.82L154.57 128.19L157.78 128.19L157.78 140.37C157.78 140.73 157.66 140.85 157.3 140.85C156.97 140.85 155.95 140.85 154.96 140.82C155.38 141.63 155.83 142.98 155.95 143.85C157.69 143.85 158.95 143.79 159.88 143.28C160.84 142.77 161.08 141.93 161.08 140.46L161.08 125.16L151.3 125.16L151.3 125.67L149.2 123.36C147.79 124.38 145.54 125.55 143.47 126.33L143.47 138.75C143.47 140.22 142.45 141.21 141.76 141.66C142.3 142.23 143.08 143.49 143.35 144.24ZM170.68 123.24C169.03 127.53 166.24 131.79 163.39 134.49C163.99 135.36 164.95 137.31 165.28 138.18C166.12 137.34 166.93 136.41 167.74 135.36L167.74 151.56L171.16 151.56L171.16 130.2C171.82 129.06 172.42 127.89 172.96 126.72L172.96 129.51L180.52 129.51L180.52 131.64L173.59 131.64L173.59 140.46L180.31 140.46C180.16 141.66 179.83 142.83 179.23 143.88C178.09 142.98 177.13 141.96 176.41 140.79L173.47 141.66C174.49 143.4 175.72 144.9 177.19 146.19C175.9 147.15 174.13 147.96 171.7 148.5C172.45 149.25 173.5 150.69 173.92 151.47C176.62 150.66 178.63 149.58 180.1 148.26C182.92 149.85 186.34 150.9 190.42 151.44C190.87 150.48 191.8 149.01 192.55 148.23C188.5 147.87 184.99 147.03 182.2 145.71C183.16 144.12 183.67 142.35 183.91 140.46L191.29 140.46L191.29 131.64L184.09 131.64L184.09 129.51L192.07 129.51L192.07 126.27L184.09 126.27L184.09 123.51L180.52 123.51L180.52 126.27L173.17 126.27L174.01 124.32L170.68 123.24ZM176.86 134.55L180.52 134.55L180.52 137.16L180.52 137.52L176.86 137.52L176.86 134.55ZM184.09 134.55L187.84 134.55L187.84 137.52L184.09 137.52L184.09 137.19L184.09 134.55ZM197.26 125.31L197.26 136.08C197.26 140.31 196.99 145.68 193.69 149.31C194.5 149.76 195.97 150.99 196.54 151.65C198.7 149.31 199.81 146.01 200.32 142.71L206.5 142.71L206.5 151.11L210.13 151.11L210.13 142.71L216.46 142.71L216.46 147.21C216.46 147.75 216.25 147.93 215.71 147.93C215.14 147.93 213.16 147.96 211.45 147.87C211.93 148.8 212.5 150.36 212.62 151.32C215.35 151.35 217.18 151.26 218.41 150.69C219.64 150.15 220.06 149.16 220.06 147.24L220.06 125.31L197.26 125.31ZM200.8 128.76L206.5 128.76L206.5 132.24L200.8 132.24L200.8 128.76ZM216.46 128.76L216.46 132.24L210.13 132.24L210.13 128.76L216.46 128.76ZM200.8 135.6L206.5 135.6L206.5 139.32L200.71 139.32C200.77 138.18 200.8 137.1 200.8 136.11L200.8 135.6ZM216.46 135.6L216.46 139.32L210.13 139.32L210.13 135.6L216.46 135.6ZM238.84 139.38C240.01 141.24 241.06 143.73 241.39 145.32L244.57 144.12C244.21 142.47 243.01 140.13 241.81 138.3L238.84 139.38ZM224.38 147.54L224.98 150.81C228.13 150.27 232.3 149.52 236.26 148.8L236.05 145.77C231.82 146.46 227.35 147.15 224.38 147.54ZM239.56 129.66C238.72 132.81 237.1 135.93 235.15 137.85C235.96 138.3 237.4 139.23 238.06 139.8C238.99 138.72 239.92 137.34 240.73 135.81L247.33 135.81C247.06 143.67 246.67 146.82 246.01 147.57C245.71 147.96 245.41 148.02 244.9 148.02C244.3 148.02 243.01 148.02 241.6 147.9C242.2 148.86 242.62 150.3 242.68 151.32C244.18 151.38 245.65 151.38 246.58 151.23C247.66 151.08 248.38 150.75 249.1 149.79C250.09 148.53 250.48 144.66 250.87 134.28C250.9 133.83 250.93 132.75 250.93 132.75L242.14 132.75C242.44 131.97 242.71 131.19 242.95 130.41L239.56 129.66ZM224.68 125.31L224.68 128.43L230.95 128.43L230.95 130.08L234.46 130.08L234.46 128.43L241.33 128.43L241.33 130.05L244.84 130.05L244.84 128.43L251.38 128.43L251.38 125.31L244.84 125.31L244.84 123.3L241.33 123.3L241.33 125.31L234.46 125.31L234.46 123.3L230.95 123.3L230.95 125.31L224.68 125.31ZM225.64 145.53C226.48 145.17 227.77 144.9 235.66 143.91C235.66 143.19 235.78 141.84 235.93 140.94L230.26 141.51C232.36 139.5 234.43 137.1 236.17 134.67L233.38 133.14C232.81 134.07 232.18 135 231.52 135.9L228.7 135.99C229.99 134.49 231.28 132.69 232.3 130.95L229.15 129.66C228.1 132.12 226.3 134.52 225.73 135.18C225.19 135.84 224.68 136.29 224.17 136.41C224.5 137.25 225.01 138.75 225.19 139.41C225.67 139.23 226.39 139.05 229.09 138.87C228.22 139.89 227.44 140.64 227.05 141C226.09 141.93 225.4 142.47 224.65 142.62C225.01 143.43 225.49 144.96 225.64 145.53ZM258.13 123.3L258.13 128.91L254.2 128.91L254.2 132.24L257.92 132.24C257.05 135.87 255.4 140.1 253.57 142.44C254.17 143.4 254.95 145.05 255.28 146.07C256.33 144.51 257.32 142.26 258.13 139.77L258.13 151.47L261.37 151.47L261.37 137.76C261.94 138.96 262.48 140.19 262.78 141.03L264.88 138.6C264.4 137.73 262.12 134.25 261.37 133.2L261.37 132.24L264.46 132.24L264.46 128.91L261.37 128.91L261.37 123.3L258.13 123.3ZM277.33 129.3C276.73 131.07 276.01 132.84 275.17 134.55C273.94 132.87 272.65 131.25 271.48 129.78L268.84 131.49C270.31 133.41 271.93 135.63 273.4 137.82C271.99 140.16 270.4 142.26 268.69 143.88L268.69 128.13L281.53 128.13L281.53 124.89L265.18 124.89L265.18 150.39L282.07 150.39L282.07 147.15L268.69 147.15L268.69 143.97C269.47 144.54 270.76 145.74 271.33 146.37C272.74 144.87 274.12 143.01 275.44 140.97C276.52 142.77 277.45 144.45 278.05 145.83L281.05 143.7C280.24 141.96 278.89 139.83 277.36 137.61C278.62 135.24 279.73 132.72 280.66 130.2L277.33 129.3ZM288.97 141.09L292.03 141.09L292.84 130.83L292.99 126.36L288.01 126.36L288.16 130.83L288.97 141.09ZM290.5 149.07C292 149.07 293.14 147.99 293.14 146.43C293.14 144.84 292 143.76 290.5 143.76C289 143.76 287.86 144.84 287.86 146.43C287.86 147.99 288.97 149.07 290.5 149.07Z"></path></g><g ><path     fill="#FFFFFF"  d="M159.801 192.749C160.75 193.685 161.998 194.985 162.596 195.752L163.324 195.063C162.7 194.322 161.439 193.074 160.503 192.177L159.801 192.749ZM152.066 188.888C152.781 189.564 153.652 190.513 154.068 191.124L154.861 190.5C154.432 189.915 153.535 189.005 152.82 188.355L152.066 188.888ZM155.225 189.044L155.225 190.019L159.164 190.019C158.137 192.099 156.512 193.88 154.653 195.011C154.887 195.193 155.251 195.596 155.394 195.778C156.512 195.037 157.578 194.049 158.488 192.892L158.488 198.222L159.489 198.222L159.489 191.462C159.775 191.007 160.048 190.513 160.282 190.019L163.064 190.019L163.064 189.044L155.225 189.044ZM154.224 192.567L151.546 192.567L151.546 193.529L153.249 193.529L153.249 197.572C152.677 197.806 152.014 198.417 151.312 199.197L152.04 200.146C152.677 199.236 153.288 198.404 153.704 198.404C153.99 198.404 154.432 198.872 154.978 199.236C155.914 199.834 157.019 199.977 158.709 199.977C160.022 199.977 162.427 199.899 163.35 199.834C163.376 199.535 163.532 199.015 163.662 198.742C162.349 198.885 160.36 199.002 158.748 199.002C157.227 199.002 156.083 198.911 155.225 198.352C154.77 198.066 154.471 197.806 154.224 197.65L154.224 192.567ZM165.092 189.031C165.885 189.473 166.925 190.136 167.445 190.539L168.017 189.746C167.471 189.356 166.418 188.745 165.638 188.342L165.092 189.031ZM164.455 192.554C165.261 192.957 166.327 193.581 166.86 193.971L167.406 193.165C166.847 192.775 165.781 192.203 164.975 191.839L164.455 192.554ZM164.858 199.301L165.677 199.925C166.392 198.729 167.263 197.091 167.9 195.713L167.185 195.102C166.47 196.584 165.521 198.287 164.858 199.301ZM169.785 188.628L169.785 190.097C169.785 191.085 169.512 192.19 167.757 192.996C167.952 193.139 168.29 193.516 168.42 193.724C170.331 192.801 170.734 191.371 170.734 190.123L170.734 189.538L173.282 189.538L173.282 191.462C173.282 192.554 173.503 192.944 174.452 192.944C174.634 192.944 175.44 192.944 175.661 192.944C175.947 192.944 176.259 192.931 176.428 192.866C176.402 192.619 176.363 192.203 176.337 191.93C176.155 191.969 175.843 191.995 175.648 191.995C175.44 191.995 174.699 191.995 174.517 191.995C174.296 191.995 174.257 191.865 174.257 191.488L174.257 188.628L169.785 188.628ZM174.179 194.816C173.685 195.817 172.944 196.636 172.047 197.299C171.163 196.61 170.461 195.778 169.98 194.816L174.179 194.816ZM168.433 193.906L168.433 194.816L169.265 194.816L169.005 194.907C169.538 196.064 170.279 197.052 171.215 197.858C170.084 198.521 168.784 198.963 167.458 199.223C167.64 199.444 167.861 199.847 167.965 200.107C169.408 199.769 170.812 199.249 172.021 198.482C173.113 199.249 174.426 199.795 175.921 200.12C176.051 199.847 176.337 199.444 176.558 199.223C175.167 198.963 173.919 198.508 172.879 197.871C174.049 196.935 174.985 195.713 175.544 194.14L174.894 193.867L174.712 193.906L168.433 193.906ZM182.083 188.16C181.927 188.719 181.745 189.291 181.511 189.85L177.819 189.85L177.819 190.76L181.108 190.76C180.276 192.476 179.08 194.062 177.52 195.128C177.702 195.31 178.014 195.661 178.144 195.882C178.963 195.297 179.691 194.595 180.315 193.802L180.315 200.107L181.277 200.107L181.277 197.533L186.724 197.533L186.724 198.885C186.724 199.08 186.659 199.158 186.438 199.158C186.191 199.171 185.398 199.184 184.54 199.145C184.67 199.418 184.813 199.821 184.865 200.081C185.983 200.081 186.698 200.081 187.127 199.938C187.556 199.769 187.686 199.47 187.686 198.898L187.686 192.268L181.368 192.268C181.667 191.774 181.927 191.28 182.161 190.76L189.207 190.76L189.207 189.85L182.551 189.85C182.746 189.369 182.915 188.875 183.071 188.394L182.083 188.16ZM181.277 195.323L186.724 195.323L186.724 196.688L181.277 196.688L181.277 195.323ZM181.277 194.491L181.277 193.152L186.724 193.152L186.724 194.491L181.277 194.491ZM192.769 190.422L192.769 194.14C192.769 195.804 192.639 198.157 190.481 199.457C190.663 199.6 190.91 199.886 191.014 200.042C193.302 198.547 193.549 196.051 193.549 194.14L193.549 190.422L192.769 190.422ZM193.237 197.39C193.835 198.105 194.537 199.093 194.836 199.717L195.499 199.184C195.174 198.599 194.446 197.65 193.848 196.948L193.237 197.39ZM191.105 188.771L191.105 196.779L191.872 196.779L191.872 189.577L194.394 189.577L194.394 196.74L195.174 196.74L195.174 188.771L191.105 188.771ZM200.933 188.732C200.283 190.032 199.178 191.293 198.021 192.099C198.242 192.268 198.58 192.632 198.736 192.814C199.893 191.904 201.089 190.487 201.843 189.018L200.933 188.732ZM196.5 200.185C196.708 200.016 197.085 199.86 199.594 198.833C199.542 198.625 199.503 198.248 199.503 197.975L197.592 198.664L197.592 194.127L198.658 194.127C199.243 196.597 200.309 198.703 201.882 199.834C202.038 199.587 202.337 199.249 202.545 199.08C201.102 198.144 200.088 196.259 199.555 194.127L202.285 194.127L202.285 193.217L197.592 193.217L197.592 188.42L196.669 188.42L196.669 193.217L195.512 193.217L195.512 194.127L196.669 194.127L196.669 198.534C196.669 199.054 196.331 199.288 196.097 199.392C196.253 199.587 196.435 199.964 196.5 200.185ZM206.211 191.085L212.997 191.085L212.997 193.698L206.198 193.698L206.211 193.009L206.211 191.085ZM208.733 188.342C208.993 188.914 209.279 189.642 209.435 190.175L205.197 190.175L205.197 193.009C205.197 194.972 205.028 197.676 203.442 199.613C203.676 199.717 204.105 200.016 204.287 200.198C205.561 198.638 206.016 196.48 206.159 194.608L212.997 194.608L212.997 195.466L213.985 195.466L213.985 190.175L209.864 190.175L210.462 189.993C210.306 189.486 209.981 188.693 209.669 188.095L208.733 188.342ZM218.535 195.934L219.601 195.934C219.25 193.971 221.993 193.555 221.993 191.566C221.993 190.11 220.966 189.187 219.354 189.187C218.093 189.187 217.222 189.759 216.429 190.591L217.131 191.241C217.781 190.526 218.47 190.162 219.224 190.162C220.329 190.162 220.836 190.812 220.836 191.67C220.836 193.152 218.132 193.75 218.535 195.934ZM219.094 199.145C219.549 199.145 219.926 198.807 219.926 198.287C219.926 197.767 219.549 197.416 219.094 197.416C218.626 197.416 218.249 197.767 218.249 198.287C218.249 198.807 218.626 199.145 219.094 199.145Z"></path></g><g filter="url(#filter_3_91)"><rect  x="115.000244140625" y="243" width="150" height="65" rx="16"    fill="#000000" fill-opacity="0"></rect><path   fill="rgba(255, 255, 255, 1)"  d="M131 242.5L249 242.5C258.113 242.5 265.5 249.887 265.5 259L265.5 292C265.5 301.113 258.113 308.5 249 308.5L131 308.5C121.888 308.5 114.5 301.113 114.5 292L114.5 259C114.5 249.887 121.888 242.5 131 242.5ZM131 243.5C122.44 243.5 115.5 250.44 115.5 259L115.5 292C115.5 300.56 122.44 307.5 131 307.5L249 307.5C257.561 307.5 264.5 300.56 264.5 292L264.5 259C264.5 250.44 257.561 243.5 249 243.5L131 243.5Z"></path></g><g ><path     fill="#FFFFFF"  d="M167.184 266.84C168.672 267.584 170.688 268.736 171.672 269.528L173.352 267.152C172.296 266.432 170.208 265.376 168.792 264.728L167.184 266.84ZM165.84 273.56C167.328 274.28 169.368 275.408 170.328 276.152L171.936 273.752C170.88 273.032 168.816 272.024 167.376 271.4L165.84 273.56ZM166.488 284.864L168.912 286.808C170.352 284.456 171.888 281.72 173.16 279.2L171.048 277.28C169.608 280.064 167.76 283.064 166.488 284.864ZM178.104 265.232C178.776 266.384 179.448 267.896 179.784 268.928L173.376 268.928L173.376 271.664L179.184 271.664L179.184 275.912L174.336 275.912L174.336 278.648L179.184 278.648L179.184 283.544L172.632 283.544L172.632 286.28L188.304 286.28L188.304 283.544L182.184 283.544L182.184 278.648L186.792 278.648L186.792 275.912L182.184 275.912L182.184 271.664L187.656 271.664L187.656 268.928L180.36 268.928L182.64 268.088C182.328 267.056 181.488 265.496 180.744 264.344L178.104 265.232ZM201.792 265.928L201.792 273.824L199.992 273.824L199.992 265.928L192.336 265.928L192.336 273.824L189.816 273.824L189.816 276.608L192.264 276.608C192.096 279.56 191.52 282.776 189.72 285.152C190.272 285.512 191.376 286.64 191.784 287.216C193.992 284.408 194.76 280.208 194.976 276.608L197.208 276.608L197.208 283.904C197.208 284.216 197.112 284.336 196.776 284.336C196.464 284.36 195.432 284.36 194.496 284.336C194.88 284.984 195.264 286.16 195.384 286.88C196.992 286.88 198.144 286.832 198.936 286.376C199.368 286.136 199.656 285.8 199.8 285.344C200.424 285.8 201.312 286.664 201.672 287.144C203.64 284.36 204.312 280.16 204.504 276.608L207.072 276.608L207.072 283.784C207.072 284.12 206.952 284.24 206.616 284.264C206.304 284.264 205.248 284.264 204.312 284.216C204.696 284.936 205.104 286.184 205.2 286.928C206.856 286.928 208.008 286.856 208.848 286.4C209.664 285.944 209.904 285.176 209.904 283.832L209.904 276.608L212.184 276.608L212.184 273.824L209.904 273.824L209.904 265.928L201.792 265.928ZM195.072 268.592L197.208 268.592L197.208 273.824L195.072 273.824L195.072 268.592ZM199.992 276.608L201.744 276.608C201.6 279.224 201.216 282.08 199.992 284.336L199.992 283.928L199.992 276.608ZM204.576 273.824L204.576 268.592L207.072 268.592L207.072 273.824L204.576 273.824Z"></path></g></g></g><g  clip-path="url(#clip-path-3_106)"><path  transform="translate(460, 152)"  style="mix-blend-mode:normal" fill="#FFFFFF"  d="M0 32L0 8C0 3.58172 3.58172 0 8 0L292 0C296.418 0 300 3.58172 300 8L300 32C300 36.4183 296.418 40 292 40L8 40C3.58172 40 0 36.4183 0 32Z"></path><g ><path     fill="#A6A6A6"  d="M479.477 172.282L479.477 177.014L480.413 177.014L480.413 172.282L479.477 172.282ZM481.128 171.801L481.128 177.872C481.128 178.028 481.089 178.067 480.933 178.067C480.764 178.08 480.231 178.08 479.646 178.067C479.789 178.353 479.906 178.769 479.945 179.055C480.738 179.055 481.284 179.029 481.635 178.873C482.012 178.704 482.103 178.418 482.103 177.872L482.103 171.801L481.128 171.801ZM470.871 173.92C470.975 173.803 471.404 173.725 471.807 173.725L472.756 173.725L472.756 175.35C471.898 175.532 471.105 175.688 470.481 175.805L470.754 176.949L472.756 176.481L472.756 179.146L473.809 179.146L473.809 176.221L474.836 175.948L474.745 174.921L473.809 175.129L473.809 173.725L474.745 173.725L474.745 172.62L473.809 172.62L473.809 170.722L472.756 170.722L472.756 172.62L471.82 172.62C472.132 171.762 472.444 170.761 472.691 169.721L474.784 169.721L474.784 168.616L472.938 168.616C473.016 168.174 473.094 167.732 473.159 167.29L472.028 167.121C471.989 167.615 471.924 168.122 471.833 168.616L470.546 168.616L470.546 169.721L471.638 169.721C471.43 170.722 471.196 171.541 471.092 171.853C470.897 172.438 470.741 172.854 470.52 172.919C470.65 173.192 470.819 173.712 470.871 173.92ZM478.554 167.043C477.67 168.382 476.019 169.604 474.459 170.306C474.745 170.553 475.07 170.943 475.239 171.229C475.525 171.086 475.824 170.917 476.11 170.735L476.11 171.242L481.115 171.242L481.115 170.657C481.401 170.826 481.687 170.982 481.986 171.138C482.129 170.813 482.467 170.423 482.74 170.176C481.427 169.63 480.244 168.941 479.269 167.901L479.555 167.485L478.554 167.043ZM476.838 170.254C477.475 169.786 478.099 169.24 478.632 168.668C479.204 169.292 479.815 169.799 480.478 170.254L476.838 170.254ZM477.878 172.945L477.878 173.816L476.318 173.816L476.318 172.945L477.878 172.945ZM475.33 171.996L475.33 179.12L476.318 179.12L476.318 176.52L477.878 176.52L477.878 177.963C477.878 178.08 477.839 178.119 477.735 178.119C477.618 178.119 477.28 178.119 476.903 178.106C477.033 178.392 477.163 178.821 477.189 179.094C477.774 179.094 478.19 179.081 478.489 178.925C478.801 178.743 478.866 178.457 478.866 177.976L478.866 171.996L475.33 171.996ZM476.318 174.726L477.878 174.726L477.878 175.61L476.318 175.61L476.318 174.726ZM486.705 168.356C487.55 168.928 488.213 169.643 488.772 170.423C487.953 174.024 486.341 176.611 483.481 178.067C483.806 178.288 484.391 178.808 484.612 179.055C487.121 177.586 488.772 175.272 489.773 172.074C491.151 174.609 492.165 177.456 495.012 179.055C495.077 178.665 495.402 177.989 495.61 177.651C491.333 175.038 491.619 170.293 487.459 167.29L486.705 168.356ZM498.08 173.699L499.445 173.699L499.445 176.403L498.08 176.403L498.08 173.699ZM498.08 172.646L498.08 170.163L499.445 170.163L499.445 172.646L498.08 172.646ZM501.837 173.699L501.837 176.403L500.511 176.403L500.511 173.699L501.837 173.699ZM501.837 172.646L500.511 172.646L500.511 170.163L501.837 170.163L501.837 172.646ZM499.38 167.121L499.38 169.097L497.014 169.097L497.014 178.353L498.08 178.353L498.08 177.456L501.837 177.456L501.837 178.171L502.955 178.171L502.955 169.097L500.576 169.097L500.576 167.121L499.38 167.121ZM504.047 167.771L504.047 179.159L505.113 179.159L505.113 168.928L506.92 168.928C506.582 169.942 506.114 171.268 505.672 172.295C506.803 173.413 507.115 174.362 507.115 175.142C507.128 175.584 507.037 175.948 506.79 176.104C506.634 176.195 506.452 176.221 506.244 176.234C506.01 176.234 505.672 176.234 505.308 176.195C505.503 176.533 505.62 177.04 505.646 177.352C506.023 177.378 506.439 177.365 506.764 177.326C507.089 177.287 507.375 177.209 507.609 177.04C508.064 176.728 508.259 176.091 508.259 175.259C508.259 174.375 507.999 173.348 506.868 172.139C507.388 170.956 507.986 169.474 508.454 168.265L507.596 167.719L507.414 167.771L504.047 167.771ZM516.644 174.414L519.699 174.414L519.699 175.532L516.644 175.532L516.644 174.414ZM516.644 173.478L516.644 172.399L519.699 172.399L519.699 173.478L516.644 173.478ZM516.644 176.468L519.699 176.468L519.699 177.599L516.644 177.599L516.644 176.468ZM515.461 171.307L515.461 179.146L516.644 179.146L516.644 178.613L519.699 178.613L519.699 179.081L520.947 179.081L520.947 171.307L515.461 171.307ZM511.353 167.03C510.95 168.317 510.222 169.617 509.403 170.449C509.689 170.605 510.196 170.943 510.43 171.125C510.846 170.644 511.262 170.033 511.639 169.357L511.99 169.357C512.25 169.851 512.484 170.423 512.627 170.839L511.964 170.839L511.964 172.217L509.767 172.217L509.767 173.348L511.743 173.348C511.158 174.661 510.222 176.065 509.351 176.832C509.624 177.079 509.949 177.495 510.131 177.794C510.755 177.144 511.418 176.195 511.964 175.207L511.964 179.185L513.147 179.185L513.147 175.038C513.641 175.584 514.161 176.208 514.421 176.585L515.201 175.623C514.915 175.324 513.719 174.206 513.147 173.738L513.147 173.348L515.084 173.348L515.084 172.217L513.147 172.217L513.147 170.839L513.121 170.839L513.745 170.566C513.641 170.241 513.446 169.786 513.212 169.357L515.331 169.357L515.331 168.317L512.146 168.317C512.289 167.992 512.419 167.654 512.536 167.329L511.353 167.03ZM516.54 167.03C516.15 168.304 515.435 169.539 514.577 170.319C514.876 170.475 515.383 170.826 515.617 171.021C516.046 170.579 516.462 169.994 516.839 169.357L517.476 169.357C517.892 169.916 518.308 170.592 518.477 171.047L519.53 170.605C519.387 170.254 519.101 169.799 518.776 169.357L521.376 169.357L521.376 168.317L517.359 168.317C517.502 167.992 517.632 167.667 517.736 167.329L516.54 167.03Z"></path></g><path fill-rule="evenodd" transform="translate(460, 152)" fill="transparent"  d="M0 8L0 32C0 36.4183 3.58172 40 8 40L292 40C296.418 40 300 36.4183 300 32L300 8C300 3.58172 296.418 0 292 0L8 0C3.58172 0 0 3.58172 0 8ZM8 39C4.13401 39 1 35.866 1 32L1 8C1 4.13401 4.13401 1 8 1L292 1C295.866 1 299 4.13401 299 8L299 32C299 35.866 295.866 39 292 39L8 39Z"></path><path  transform="translate(460, 216)"  style="mix-blend-mode:normal" fill="#FFFFFF"  d="M0 32L0 8C0 3.58172 3.58172 0 8 0L292 0C296.418 0 300 3.58172 300 8L300 32C300 36.4183 296.418 40 292 40L8 40C3.58172 40 0 36.4183 0 32Z"></path><g ><path     fill="#A6A6A6"  d="M479.477 236.282L479.477 241.014L480.413 241.014L480.413 236.282L479.477 236.282ZM481.128 235.801L481.128 241.872C481.128 242.028 481.089 242.067 480.933 242.067C480.764 242.08 480.231 242.08 479.646 242.067C479.789 242.353 479.906 242.769 479.945 243.055C480.738 243.055 481.284 243.029 481.635 242.873C482.012 242.704 482.103 242.418 482.103 241.872L482.103 235.801L481.128 235.801ZM470.871 237.92C470.975 237.803 471.404 237.725 471.807 237.725L472.756 237.725L472.756 239.35C471.898 239.532 471.105 239.688 470.481 239.805L470.754 240.949L472.756 240.481L472.756 243.146L473.809 243.146L473.809 240.221L474.836 239.948L474.745 238.921L473.809 239.129L473.809 237.725L474.745 237.725L474.745 236.62L473.809 236.62L473.809 234.722L472.756 234.722L472.756 236.62L471.82 236.62C472.132 235.762 472.444 234.761 472.691 233.721L474.784 233.721L474.784 232.616L472.938 232.616C473.016 232.174 473.094 231.732 473.159 231.29L472.028 231.121C471.989 231.615 471.924 232.122 471.833 232.616L470.546 232.616L470.546 233.721L471.638 233.721C471.43 234.722 471.196 235.541 471.092 235.853C470.897 236.438 470.741 236.854 470.52 236.919C470.65 237.192 470.819 237.712 470.871 237.92ZM478.554 231.043C477.67 232.382 476.019 233.604 474.459 234.306C474.745 234.553 475.07 234.943 475.239 235.229C475.525 235.086 475.824 234.917 476.11 234.735L476.11 235.242L481.115 235.242L481.115 234.657C481.401 234.826 481.687 234.982 481.986 235.138C482.129 234.813 482.467 234.423 482.74 234.176C481.427 233.63 480.244 232.941 479.269 231.901L479.555 231.485L478.554 231.043ZM476.838 234.254C477.475 233.786 478.099 233.24 478.632 232.668C479.204 233.292 479.815 233.799 480.478 234.254L476.838 234.254ZM477.878 236.945L477.878 237.816L476.318 237.816L476.318 236.945L477.878 236.945ZM475.33 235.996L475.33 243.12L476.318 243.12L476.318 240.52L477.878 240.52L477.878 241.963C477.878 242.08 477.839 242.119 477.735 242.119C477.618 242.119 477.28 242.119 476.903 242.106C477.033 242.392 477.163 242.821 477.189 243.094C477.774 243.094 478.19 243.081 478.489 242.925C478.801 242.743 478.866 242.457 478.866 241.976L478.866 235.996L475.33 235.996ZM476.318 238.726L477.878 238.726L477.878 239.61L476.318 239.61L476.318 238.726ZM486.705 232.356C487.55 232.928 488.213 233.643 488.772 234.423C487.953 238.024 486.341 240.611 483.481 242.067C483.806 242.288 484.391 242.808 484.612 243.055C487.121 241.586 488.772 239.272 489.773 236.074C491.151 238.609 492.165 241.456 495.012 243.055C495.077 242.665 495.402 241.989 495.61 241.651C491.333 239.038 491.619 234.293 487.459 231.29L486.705 232.356ZM498.275 234.852C497.924 235.632 497.3 236.542 496.572 237.101L497.56 237.699C498.301 237.088 498.86 236.113 499.276 235.294L498.275 234.852ZM500.472 234.02C501.278 234.358 502.24 234.93 502.721 235.359L503.345 234.579C502.851 234.15 501.863 233.617 501.07 233.292L500.472 234.02ZM505.425 235.515C506.231 236.243 507.154 237.27 507.557 237.946L508.493 237.27C508.064 236.594 507.102 235.606 506.309 234.93L505.425 235.515ZM504.84 233.734C503.904 234.891 502.539 235.866 500.966 236.646L500.966 234.683L499.861 234.683L499.861 237.062L499.861 237.153C498.769 237.608 497.612 237.972 496.442 238.258C496.663 238.505 497.001 239.012 497.144 239.272C498.184 238.973 499.224 238.609 500.238 238.18C500.524 238.388 500.992 238.466 501.759 238.466C502.058 238.466 504.047 238.466 504.372 238.466C505.581 238.466 505.919 238.089 506.062 236.542C505.75 236.477 505.295 236.321 505.048 236.139C504.996 237.309 504.879 237.491 504.281 237.491C503.826 237.491 502.175 237.491 501.837 237.491L501.681 237.491C503.332 236.633 504.801 235.554 505.88 234.254L504.84 233.734ZM498.028 239.506L498.028 242.626L505.828 242.626L505.828 243.12L507.063 243.12L507.063 239.35L505.828 239.35L505.828 241.469L503.098 241.469L503.098 238.843L501.85 238.843L501.85 241.469L499.237 241.469L499.237 239.506L498.028 239.506ZM501.616 231.147C501.72 231.459 501.837 231.823 501.915 232.161L496.962 232.161L496.962 234.787L498.171 234.787L498.171 233.253L506.816 233.253L506.816 234.787L508.064 234.787L508.064 232.161L503.189 232.161C503.098 231.784 502.955 231.316 502.786 230.952L501.616 231.147ZM514.382 239.35L514.382 240.442L519.205 240.442L519.205 239.35L514.382 239.35ZM515.357 233.617C515.266 234.956 515.084 236.737 514.915 237.829L520.024 237.829C519.803 240.481 519.53 241.573 519.205 241.885C519.088 242.028 518.945 242.054 518.737 242.041C518.49 242.041 517.944 242.041 517.359 241.976C517.541 242.288 517.671 242.769 517.684 243.094C518.321 243.133 518.906 243.12 519.244 243.094C519.66 243.055 519.933 242.951 520.206 242.639C520.661 242.158 520.96 240.767 521.233 237.296C521.259 237.127 521.272 236.776 521.272 236.776L519.738 236.776C519.946 235.151 520.141 233.266 520.245 231.862L519.374 231.771L519.179 231.823L514.733 231.823L514.733 232.941L518.984 232.941C518.88 234.059 518.724 235.515 518.568 236.776L516.202 236.776C516.332 235.814 516.436 234.657 516.514 233.695L515.357 233.617ZM509.611 231.745L509.611 232.863L511.119 232.863C510.781 234.735 510.196 236.477 509.325 237.647C509.507 237.985 509.767 238.726 509.819 239.038C510.04 238.765 510.248 238.466 510.443 238.141L510.443 242.574L511.496 242.574L511.496 241.56L513.849 241.56L513.849 235.775L511.509 235.775C511.834 234.852 512.081 233.864 512.276 232.863L514.174 232.863L514.174 231.745L509.611 231.745ZM511.496 236.854L512.77 236.854L512.77 240.468L511.496 240.468L511.496 236.854Z"></path></g><path fill-rule="evenodd" transform="translate(460, 216)" fill="transparent"  d="M0 8L0 32C0 36.4183 3.58172 40 8 40L292 40C296.418 40 300 36.4183 300 32L300 8C300 3.58172 296.418 0 292 0L8 0C3.58172 0 0 3.58172 0 8ZM8 39C4.13401 39 1 35.866 1 32L1 8C1 4.13401 4.13401 1 8 1L292 1C295.866 1 299 4.13401 299 8L299 32C299 35.866 295.866 39 292 39L8 39Z"></path><path d="M736.887 242.2L738.687 240.4L738.887 240.4C742.287 240.4 744.787 239.1 746.687 236.4C746.087 235.6 745.387 234.9 744.687 234.3L746.187 233C747.287 233.9 748.187 235.1 748.987 236.4C746.687 240.4 743.287 242.3 738.987 242.3C738.287 242.4 737.587 242.3 736.887 242.2ZM731.287 239.4C730.487 238.6 729.687 237.6 728.987 236.4C731.287 232.4 734.687 230.5 738.987 230.5L740.087 230.5L738.087 232.5C735.087 232.7 732.787 234 731.087 236.4C731.487 237 731.987 237.6 732.487 238L731.287 239.4ZM744.687 229L746.087 230.4L733.487 243L732.087 241.6L744.687 229Z"   fill="#C4C4C4" ></path><g filter="url(#filter_3_116)"><rect  x="460" y="294" width="300" height="40" rx="8"    fill="#395AA7" ></rect><path   fill="rgba(57, 90, 167, 1)"  d="M468 293.5L752 293.5C756.694 293.5 760.5 297.306 760.5 302L760.5 326C760.5 330.694 756.694 334.5 752 334.5L468 334.5C463.306 334.5 459.5 330.694 459.5 326L459.5 302C459.5 297.306 463.306 293.5 468 293.5ZM468 294.5C463.858 294.5 460.5 297.858 460.5 302L460.5 326C460.5 330.142 463.858 333.5 468 333.5L752 333.5C756.142 333.5 759.5 330.142 759.5 326L759.5 302C759.5 297.858 756.142 294.5 752 294.5L468 294.5Z"></path></g><g ><path     fill="#FFFFFF"  d="M596.36 316.6L603.36 316.6L603.36 318.34L596.36 318.34L596.36 316.6ZM596.6 312.78L596.6 313.56L603.58 313.56L603.58 312.84C604.22 313.52 604.94 314.16 605.68 314.7L594.4 314.7C595.18 314.14 595.92 313.5 596.6 312.78ZM595.28 320.74C595.6 321.26 595.9 321.96 596.1 322.54L591.18 322.54L591.18 324.58L608.88 324.58L608.88 322.54L603.8 322.54C604.1 322 604.42 321.34 604.76 320.66L602.82 320.24L605.94 320.24L605.94 314.88C606.62 315.36 607.36 315.76 608.12 316.12C608.48 315.5 609.2 314.56 609.76 314.08C608.52 313.6 607.38 312.92 606.34 312.1C607.24 311.48 608.22 310.7 609.06 309.96L607.3 308.72C606.7 309.38 605.82 310.2 604.98 310.86C604.64 310.52 604.34 310.18 604.06 309.82C604.94 309.2 605.96 308.44 606.86 307.68L605.04 306.4C604.52 306.98 603.76 307.7 603.02 308.32C602.62 307.66 602.26 306.98 601.98 306.28L599.84 306.92C600.54 308.62 601.42 310.18 602.48 311.56L597.66 311.56C598.58 310.4 599.32 309.1 599.86 307.64L598.24 306.84L597.84 306.94L591.9 306.94L591.9 308.88L596.68 308.88C596.26 309.6 595.76 310.28 595.18 310.94C594.6 310.38 593.7 309.74 592.92 309.32L591.62 310.64C592.34 311.1 593.2 311.76 593.76 312.32C592.7 313.22 591.52 313.98 590.34 314.48C590.82 314.92 591.5 315.74 591.82 316.26C592.54 315.9 593.26 315.5 593.94 315.02L593.94 320.24L596.86 320.24L595.28 320.74ZM597.56 322.54L598.48 322.22C598.34 321.66 597.98 320.88 597.56 320.24L602.42 320.24C602.18 320.94 601.76 321.84 601.4 322.54L597.56 322.54ZM617.271 317.3C618.531 318.02 620.151 319.12 620.891 319.88L622.591 318.24C621.771 317.48 620.111 316.46 618.871 315.84L617.271 317.3ZM617.371 307.18L617.371 309.38L629.051 309.38L629.011 310.44L618.031 310.44L618.031 312.58L628.891 312.58L628.831 313.66L616.171 313.66L616.171 315.74L623.651 315.74L623.651 318.9C620.831 320 617.891 321.1 615.991 321.74L617.311 323.9C619.151 323.16 621.431 322.18 623.651 321.2L623.651 322.68C623.651 322.96 623.531 323.04 623.211 323.04C622.911 323.06 621.751 323.06 620.791 323C621.111 323.58 621.471 324.44 621.611 325.06C623.131 325.08 624.211 325.04 625.031 324.74C625.851 324.42 626.111 323.88 626.111 322.74L626.111 319.88C627.731 321.88 629.831 323.4 632.471 324.28C632.831 323.62 633.531 322.64 634.071 322.16C632.191 321.66 630.551 320.86 629.211 319.8C630.371 319.08 631.711 318.12 632.871 317.18L630.891 315.74L633.811 315.74L633.811 313.66L631.371 313.66C631.571 311.6 631.711 309.28 631.731 307.2L629.811 307.1L629.371 307.18L617.371 307.18ZM626.111 315.74L630.751 315.74C629.951 316.56 628.731 317.58 627.651 318.36C627.051 317.68 626.531 316.96 626.111 316.16L626.111 315.74Z"></path></g><g ><path     fill="#000000"  d="M567.448 101.995L580.048 101.995L580.048 105.127L567.448 105.127L567.448 101.995ZM567.88 95.119L567.88 96.523L580.444 96.523L580.444 95.227C581.596 96.451 582.892 97.603 584.224 98.575L563.92 98.575C565.324 97.567 566.656 96.415 567.88 95.119ZM565.504 109.447C566.08 110.383 566.62 111.643 566.98 112.687L558.124 112.687L558.124 116.359L589.984 116.359L589.984 112.687L580.84 112.687C581.38 111.715 581.956 110.527 582.568 109.303L579.076 108.547L584.692 108.547L584.692 98.899C585.916 99.763 587.248 100.483 588.616 101.131C589.264 100.015 590.56 98.323 591.568 97.459C589.336 96.595 587.284 95.371 585.412 93.895C587.032 92.779 588.796 91.375 590.308 90.043L587.14 87.811C586.06 88.999 584.476 90.475 582.964 91.663C582.352 91.051 581.812 90.439 581.308 89.791C582.892 88.675 584.728 87.307 586.348 85.939L583.072 83.635C582.136 84.679 580.768 85.975 579.436 87.091C578.716 85.903 578.068 84.679 577.564 83.419L573.712 84.571C574.972 87.631 576.556 90.439 578.464 92.923L569.788 92.923C571.444 90.835 572.776 88.495 573.748 85.867L570.832 84.427L570.112 84.607L559.42 84.607L559.42 88.099L568.024 88.099C567.268 89.395 566.368 90.619 565.324 91.807C564.28 90.799 562.66 89.647 561.256 88.891L558.916 91.267C560.212 92.095 561.76 93.283 562.768 94.291C560.86 95.911 558.736 97.279 556.612 98.179C557.476 98.971 558.7 100.447 559.276 101.383C560.572 100.735 561.868 100.015 563.092 99.151L563.092 108.547L568.348 108.547L565.504 109.447ZM569.608 112.687L571.264 112.111C571.012 111.103 570.364 109.699 569.608 108.547L578.356 108.547C577.924 109.807 577.168 111.427 576.52 112.687L569.608 112.687ZM605.088 103.255C607.356 104.551 610.272 106.531 611.604 107.899L614.664 104.947C613.188 103.579 610.2 101.743 607.968 100.627L605.088 103.255ZM605.268 85.039L605.268 88.999L626.292 88.999L626.22 90.907L606.456 90.907L606.456 94.759L626.004 94.759L625.896 96.703L603.108 96.703L603.108 100.447L616.572 100.447L616.572 106.135C611.496 108.115 606.204 110.095 602.784 111.247L605.16 115.135C608.472 113.803 612.576 112.039 616.572 110.275L616.572 112.939C616.572 113.443 616.356 113.587 615.78 113.587C615.24 113.623 613.152 113.623 611.424 113.515C612 114.559 612.648 116.107 612.9 117.223C615.636 117.259 617.58 117.187 619.056 116.647C620.532 116.071 621 115.099 621 113.047L621 107.899C623.916 111.499 627.696 114.235 632.448 115.819C633.096 114.631 634.356 112.867 635.328 112.003C631.944 111.103 628.992 109.663 626.58 107.755C628.668 106.459 631.08 104.731 633.168 103.039L629.604 100.447L634.86 100.447L634.86 96.703L630.468 96.703C630.828 92.995 631.08 88.819 631.116 85.075L627.66 84.895L626.868 85.039L605.268 85.039ZM621 100.447L629.352 100.447C627.912 101.923 625.716 103.759 623.772 105.163C622.692 103.939 621.756 102.643 621 101.203L621 100.447Z"></path></g><g ><path     fill="#000000"  d="M585.666 275.908L585.666 278.651C585.666 279.509 586.03 279.704 587.356 279.704C587.642 279.704 590.359 279.704 590.645 279.704C591.789 279.704 592.023 279.327 592.127 277.78C591.945 277.741 591.685 277.637 591.529 277.533C591.464 278.898 591.347 279.119 590.606 279.119C590.047 279.119 587.759 279.119 587.343 279.119C586.459 279.119 586.303 279.028 586.303 278.651L586.303 275.908L585.666 275.908ZM587.486 274.894C588.227 275.596 589.085 276.623 589.462 277.273L589.995 276.935C589.592 276.285 588.734 275.31 587.98 274.608L587.486 274.894ZM592.179 275.96C592.829 276.935 593.492 278.274 593.726 279.093L594.324 278.859C594.077 278.014 593.401 276.714 592.725 275.752L592.179 275.96ZM584.158 275.947C583.846 276.805 583.3 278.066 582.689 278.833L583.235 279.119C583.833 278.3 584.34 277.039 584.691 276.168L584.158 275.947ZM587.811 268.394C588.058 268.81 588.318 269.33 588.474 269.759L582.936 269.759L582.936 270.357L584.678 270.357L584.678 273.971L593.375 273.971L593.375 273.386L585.276 273.386L585.276 270.357L593.986 270.357L593.986 269.759L589.15 269.759C588.994 269.304 588.695 268.68 588.37 268.199L587.811 268.394ZM596.794 269.018C597.496 269.629 598.341 270.487 598.744 271.033L599.212 270.578C598.783 270.058 597.938 269.226 597.236 268.628L596.794 269.018ZM597.626 279.73L597.626 279.717C597.795 279.496 598.107 279.275 600.239 277.78C600.174 277.65 600.07 277.416 600.031 277.247L598.458 278.3L598.458 272.385L595.663 272.385L595.663 272.996L597.847 272.996L597.847 278.079C597.847 278.677 597.444 279.093 597.236 279.236C597.353 279.353 597.548 279.6 597.626 279.73ZM600.499 269.187L600.499 269.811L605.803 269.811L605.803 273.503L600.72 273.503L600.72 278.612C600.72 279.626 601.136 279.86 602.449 279.86C602.722 279.86 605.439 279.86 605.751 279.86C607.064 279.86 607.311 279.314 607.428 277.26C607.233 277.221 606.973 277.117 606.804 276.987C606.739 278.898 606.596 279.249 605.738 279.249C605.153 279.249 602.865 279.249 602.436 279.249C601.539 279.249 601.37 279.119 601.37 278.612L601.37 274.114L605.803 274.114L605.803 274.803L606.427 274.803L606.427 269.187L600.499 269.187ZM610.483 271.956C610.119 272.749 609.482 273.75 608.676 274.348L609.196 274.673C609.976 274.036 610.587 273.009 611.003 272.19L610.483 271.956ZM612.719 270.799C613.525 271.202 614.487 271.852 614.955 272.32L615.319 271.904C614.838 271.436 613.876 270.812 613.07 270.409L612.719 270.799ZM617.568 272.32C618.439 273.048 619.388 274.101 619.83 274.79L620.311 274.426C619.882 273.737 618.894 272.723 618.023 272.008L617.568 272.32ZM617.087 270.851C616.008 272.151 614.422 273.23 612.615 274.075L612.615 271.67L612.03 271.67L612.03 274.322C610.925 274.79 609.742 275.18 608.559 275.466C608.702 275.609 608.897 275.882 608.975 276.025C610.041 275.713 611.107 275.349 612.134 274.907C612.303 275.245 612.719 275.323 613.564 275.323C613.811 275.323 616.255 275.323 616.515 275.323C617.555 275.323 617.776 274.959 617.88 273.425C617.698 273.399 617.464 273.295 617.308 273.191C617.269 274.582 617.152 274.764 616.489 274.764C615.982 274.764 613.928 274.764 613.564 274.764C613.083 274.764 612.836 274.738 612.732 274.647C614.669 273.75 616.411 272.593 617.633 271.124L617.087 270.851ZM610.184 276.558L610.184 279.392L618.296 279.392L618.296 280.042L618.907 280.042L618.907 276.519L618.296 276.519L618.296 278.794L614.786 278.794L614.786 275.83L614.162 275.83L614.162 278.794L610.795 278.794L610.795 276.558L610.184 276.558ZM613.928 268.225C614.058 268.589 614.201 269.057 614.279 269.434L609.066 269.434L609.066 271.865L609.69 271.865L609.69 270.019L619.349 270.019L619.349 271.865L619.973 271.865L619.973 269.434L614.929 269.434C614.851 269.044 614.682 268.537 614.513 268.134L613.928 268.225ZM626.265 276.519L626.265 277.104L631.413 277.104L631.413 276.519L626.265 276.519ZM627.422 270.643C627.331 271.852 627.162 273.542 627.006 274.53L627.188 274.53L632.492 274.543C632.206 277.676 631.92 278.898 631.517 279.262C631.413 279.392 631.27 279.418 631.036 279.405C630.802 279.405 630.165 279.405 629.502 279.327C629.593 279.496 629.658 279.756 629.671 279.938C630.308 279.977 630.919 279.977 631.231 279.977C631.608 279.964 631.816 279.886 632.037 279.652C632.505 279.197 632.804 277.858 633.129 274.309C633.142 274.192 633.142 273.971 633.142 273.971L631.426 273.971C631.634 272.398 631.855 270.37 631.959 269.07L631.53 269.018L631.426 269.057L626.798 269.057L626.798 269.655L631.309 269.655C631.205 270.812 631.01 272.606 630.828 273.971L627.669 273.971C627.799 273.009 627.929 271.709 628.007 270.695L627.422 270.643ZM621.715 268.992L621.715 269.59L623.431 269.59C623.054 271.735 622.417 273.724 621.442 275.05C621.559 275.193 621.754 275.492 621.819 275.622C622.105 275.232 622.365 274.79 622.599 274.309L622.599 279.457L623.171 279.457L623.171 278.378L625.628 278.378L625.628 272.97L623.158 272.97C623.535 271.93 623.821 270.786 624.055 269.59L626.057 269.59L626.057 268.992L621.715 268.992ZM623.171 273.555L625.056 273.555L625.056 277.793L623.171 277.793L623.171 273.555ZM636.691 276.064L637.393 276.064C636.964 274.023 639.928 273.503 639.928 271.488C639.928 270.149 638.979 269.174 637.367 269.174C636.08 269.174 635.261 269.772 634.442 270.604L634.91 271.046C635.677 270.24 636.457 269.824 637.302 269.824C638.602 269.824 639.161 270.591 639.161 271.54C639.161 273.152 636.223 273.815 636.691 276.064ZM637.081 279.106C637.419 279.106 637.731 278.859 637.731 278.43C637.731 278.001 637.419 277.728 637.081 277.728C636.73 277.728 636.431 278.001 636.431 278.43C636.431 278.859 636.73 279.106 637.081 279.106Z"></path></g></g></g></g><path fill-rule="evenodd" transform="translate(8.999755859375, 7)" fill="rgba(201,201,201,1)"  d="M0 32L0 368C0 385.673 14.3269 400 32 400L768 400C785.673 400 800 385.673 800 368L800 32C800 14.3269 785.673 0 768 0L32 0C14.3269 0 0 14.3269 0 32ZM32 399C14.8792 399 1 385.121 1 368L1 32C1 14.8792 14.8792 1 32 1L768 1C785.121 1 799 14.8792 799 32L799 368C799 385.121 785.121 399 768 399L32 399Z"></path><defs><clipPath id="clip-path-3_86"><path d="M9 375L9 39C9 21.3269 23.3269 7 41 7L777 7C794.673 7 809 21.3269 809 39L809 375C809 392.673 794.673 407 777 407L41 407C23.3269 407 9 392.673 9 375Z" fill="white"/></clipPath><clipPath id="clip-path-3_124"><path d="M9 414L409 414L409 7L9 7L9 414Z" fill="white"/></clipPath><clipPath id="clip-path-3_134"><path d="M90 339L302 339L302 82L90 82L90 339Z" fill="white"/></clipPath><filter id="filter_3_91" x="110.500244140625" y="240.5" width="159" height="74" filterUnits="userSpaceOnUse" color-interpolation-filters="sRGB"><feFlood flood-opacity="0" result="feFloodId_3_91"/><feColorMatrix in="SourceAlpha" type="matrix" values="0 0 0 0 0 0 0 0 0 0 0 0 0 0 0 0 0 0 127 0" result="hardAlpha_3_91"/><feOffset dx="0" dy="2"/><feGaussianBlur stdDeviation="2"/><feComposite in2="hardAlpha_3_91" operator="out"/><feColorMatrix type="matrix" values="0 0 0 0 0 0 0 0 0 0 0 0 0 0 0 0 0 0 0.25 0"/><feBlend mode="normal" in2="feFloodId_3_91" result="dropShadow_1_3_91"/><feBlend mode="normal" in="SourceGraphic" in2="dropShadow_1_3_91" result="shape_3_91"/></filter><clipPath id="clip-path-3_106"><path d="M449 369L765 369L765 40L449 40L449 369Z" fill="white"/></clipPath><filter id="filter_3_116" x="455.5" y="291.5" width="308.999755859375" height="49" filterUnits="userSpaceOnUse" color-interpolation-filters="sRGB"><feFlood flood-opacity="0" result="feFloodId_3_116"/><feColorMatrix in="SourceAlpha" type="matrix" values="0 0 0 0 0 0 0 0 0 0 0 0 0 0 0 0 0 0 127 0" result="hardAlpha_3_116"/><feOffset dx="0" dy="2"/><feGaussianBlur stdDeviation="2"/><feComposite in2="hardAlpha_3_116" operator="out"/><feColorMatrix type="matrix" values="0 0 0 0 0 0 0 0 0 0 0 0 0 0 0 0 0 0 0.25 0"/><feBlend mode="normal" in2="feFloodId_3_116" result="dropShadow_1_3_116"/><feBlend mode="normal" in="SourceGraphic" in2="dropShadow_1_3_116" result="shape_3_116"/></filter><filter id="filter_3_86" x="0" y="0" width="817.999755859375" height="418" filterUnits="userSpaceOnUse" color-interpolation-filters="sRGB"><feFlood flood-opacity="0" result="feFloodId_3_86"/><feColorMatrix in="SourceAlpha" type="matrix" values="0 0 0 0 0 0 0 0 0 0 0 0 0 0 0 0 0 0 127 0" result="hardAlpha_3_86"/><feMorphology radius="3" operator="dilate" in="SourceAlpha"/><feOffset dx="0" dy="2"/><feGaussianBlur stdDeviation="3"/><feComposite in2="hardAlpha_3_86" operator="out"/><feColorMatrix type="matrix" values="0 0 0 0 0.011764705882352941 0 0 0 0 0.7686274509803922 0 0 0 0 0.984313725490196 0 0 0 1 0"/><feBlend mode="normal" in2="feFloodId_3_86" result="dropShadow_1_3_86"/><feBlend mode="normal" in="SourceGraphic" in2="dropShadow_1_3_86" result="shape_3_86"/></filter></defs></svg>